<?xml version="1.0" encoding="UTF-8"?>
<svg xmlns="http://www.w3.org/2000/svg" width="1000" height="1000" xmlns:xlink="http://www.w3.org/1999/xlink" viewBox="0 0 1000 1000">
  <defs>
    <style>
      .cls-1 {
        fill: #004a8f;
      }

      .cls-2 {
        fill: #010917;
      }

      .cls-3 {
        fill: #003f7a;
      }

      .cls-4, .cls-5 {
        fill: #002a52;
      }

      .cls-6 {
        fill: #003566;
      }

      .cls-7 {
        fill: #9dcbf7;
      }

      .cls-8 {
        fill: #75b4f0;
      }

      .cls-9 {
        fill: #4c95db;
      }

      .cls-5 {
        isolation: isolate;
        opacity: .37;
      }

      .cls-10 {
        fill: url(#Dégradé_sans_nom_16);
      }

      .cls-11 {
        stroke-width: 6px;
      }

      .cls-11, .cls-12 {
        fill: lime;
        stroke: lime;
        stroke-miterlimit: 10;
      }

      .cls-12 {
        stroke-width: 3px;
      }
    </style>
    <linearGradient id="Dégradé_sans_nom_16" data-name="Dégradé sans nom 16" x1="437.98" y1="681.292" x2="437.98" y2="93.655" gradientTransform="translate(62.02 -146.38)" gradientUnits="userSpaceOnUse">
      <stop offset="0" stop-color="#4c95db" stop-opacity=".8"/>
      <stop offset=".089" stop-color="#3f7db9" stop-opacity=".665"/>
      <stop offset=".241" stop-color="#2c5a88" stop-opacity=".463"/>
      <stop offset=".394" stop-color="#1c3c5f" stop-opacity=".296"/>
      <stop offset=".547" stop-color="#10263f" stop-opacity=".166"/>
      <stop offset=".699" stop-color="#071529" stop-opacity=".074"/>
      <stop offset=".85" stop-color="#020c1b" stop-opacity=".018"/>
      <stop offset="1" stop-color="#010917" stop-opacity="0"/>
    </linearGradient>
  </defs>
  <g id="ombre">
    <path d="M522.198,986.461l214.465-120.724c17.635-9.927,18.056-35.17,.761-45.679h0l-224.312-129.206c-8.184-4.714-18.261-4.709-26.441,.013l-223.584,129.078c-17.751,10.248-17.616,35.914,.24,45.976l223.309,125.826c7.992,4.503,17.746,4.546,25.778,.114l9.784-5.399Z" style="fill: #002a52; isolation: isolate; opacity: .37;"/>
  </g>
  <g id="cube">
    <g>
      <g>
        <path d="M520.645,872.557c-20.346,11.759-38.898,1.42-41.074,.125-.05-.025-.083-.05-.116-.066-.033-.017-.058-.033-.075-.042-.017-.008-.025-.017-.025-.017l-222.617-128.544c-4.26-2.458-6.884-7.001-6.884-11.917V475.031s.241-1.993,.963-5.099c0-.008,0-.017,.008-.025,1.819-7.79,6.743-22.472,18.677-29.996-8.163,5.639-7.831,18.095,.997,23.194l4.41,2.549,211.672,122.225,6.536,3.77c4.26,2.458,6.884,7.001,6.884,11.917v257.072c0,10.596,11.468,17.215,20.645,11.917Z" style="fill: #003566;"/>
        <path d="M729.502,463.106l-8.653,4.991-205.485,118.662-8.479,4.891c-4.26,2.458-9.509,2.458-13.769,0l-6.536-3.77-211.672-122.225-4.41-2.549c-8.828-5.099-9.16-17.556-.997-23.194,.083-.058,.158-.108,.241-.166,.241-.166,.498-.324,.756-.473l222.617-128.528c4.26-2.458,9.509-2.458,13.769,0l222.21,128.295c.133,.075,.266,.149,.407,.232,9.176,5.29,9.176,18.536,0,23.834Z" style="fill: #002a52;"/>
        <path d="M750.146,475.031v257.064c0,4.916-2.624,9.459-6.884,11.917l-222.617,128.544c-9.176,5.298-20.645-1.32-20.645-11.917v-257.072c0-4.916,2.624-9.459,6.884-11.917l8.479-4.891,205.485-118.662,8.653-4.991c9.176-5.298,9.176-18.544,0-23.834,16.484,9.517,19.814,27.355,20.479,33.558,0,.017,.008,.033,.008,.042,.025,.166,.042,.332,.05,.498,.017,.158,.025,.307,.033,.44,.008,.133,.025,.249,.033,.357,.017,.141,.025,.291,.025,.432,.008,.058,.008,.125,.008,.183,0,.083,.008,.166,.008,.249Z" style="fill: #003f7a;"/>
        <path d="M506.884,591.651c-4.26,2.458-6.884,7.001-6.884,11.917,0-4.916-2.624-9.459-6.884-11.917,4.26,2.458,9.509,2.458,13.769,0Z" style="fill: #002a52;"/>
      </g>
      <g>
        <path d="M491.295,356.077l-141.036,81.427c-6.47,3.735-6.47,13.074,0,16.809l141.036,81.427c5.474,3.16,12.217,3.16,17.691,0l141.036-81.427c6.47-3.735,6.47-13.074,0-16.809l-141.036-81.427c-5.474-3.16-12.217-3.16-17.691,0Z" style="fill: #003f7a;"/>
        <path d="M491.295,351.768l-141.036,81.427c-6.47,3.736-6.47,13.074,0,16.81l141.036,81.427c5.474,3.16,12.217,3.16,17.691,0l141.036-81.427c6.47-3.736,6.47-13.074,0-16.809l-141.036-81.427c-5.474-3.16-12.217-3.16-17.691,0Z" style="fill: #010917;"/>
        <path d="M349.715,449.696l4.473,2.582,137.107-79.195c5.474-3.16,12.217-3.16,17.691,0l137.097,79.195,3.938-2.274c6.47-3.736,6.47-13.734,0-17.469l-141.036-81.427c-5.474-3.16-12.217-3.16-17.691,0l-141.036,81.427c-6.47,3.735-7.014,13.425-.544,17.16Z" style="fill: #004a8f;"/>
      </g>
    </g>
  </g>
  <g id="particule-arriere">
    <path d="M516.33,230.749c0,.732-.462,1.326-1.031,1.326s-1.032-.594-1.032-1.326,.462-1.326,1.032-1.326,1.031,.594,1.031,1.326Z" style="fill: lime; stroke: lime; stroke-miterlimit: 10; stroke-width: 3px;"/>
    <path d="M448.921,267.578c0,1.441-.909,2.609-2.029,2.609s-2.028-1.168-2.028-2.609,.908-2.608,2.028-2.608,2.029,1.167,2.029,2.608Z" style="fill: lime; stroke: lime; stroke-miterlimit: 10; stroke-width: 3px;"/>
    <path d="M513.142,382.639c0,1.351-.852,2.446-1.902,2.446s-1.902-1.095-1.902-2.446,.852-2.446,1.902-2.446,1.902,1.095,1.902,2.446Z" style="fill: lime; stroke: lime; stroke-miterlimit: 10; stroke-width: 3px;"/>
  </g>
  <g id="Calque_5" data-name="Calque 5">
    <g>
      <path d="M582.445,308.702c-.711,26.918-10.702,47.907-27.393,57.542l-16.098,9.398c2.757-1.601,5.336-3.498,7.708-5.692,5.366-4.951,9.754-11.325,12.955-18.855,4.091-9.368,6.404-20.544,6.73-32.996,.089-3.587,.03-7.204-.237-10.85-.178-3.558-.563-7.115-1.068-10.702-3.972-28.282-16.631-57.068-34.122-79.095-3.943-5.01-8.153-9.665-12.57-13.844-5.247-5.069-10.82-9.457-16.572-13.074-1.749-1.156-3.528-2.194-5.336-3.172-.771-.415-1.542-.83-2.312-1.215-6.73-3.35-13.4-5.514-19.833-6.433-7.352-1.097-14.438-.593-20.96,1.482-2.905,.919-5.721,2.164-8.39,3.706l16.098-9.398c14.615-8.449,32.907-7.589,51.524,2.461,39.903,21.493,71.239,80.162,69.875,130.737Z" style="fill: #75b4f0;"/>
      <path d="M566.11,307.249c-.178-3.558-.563-7.115-1.068-10.702-3.972-28.282-16.631-57.068-34.122-79.095-3.943-5.01-8.153-9.665-12.57-13.844-5.247-5.069-10.82-9.457-16.572-13.074-1.749-1.156-3.528-2.194-5.336-3.172-.771-.415-1.542-.83-2.312-1.215-6.73-3.35-13.4-5.514-19.833-6.433-7.352-1.097-14.438-.593-20.96,1.482-2.905,.919-5.721,2.164-8.39,3.706-16.69,9.664-26.681,30.624-27.393,57.542-1.364,50.575,30.002,109.244,69.875,130.767,10.168,5.455,20.189,8.212,29.616,8.212,7.856,0,15.267-1.927,21.908-5.781,2.757-1.601,5.336-3.498,7.708-5.692,5.366-4.951,9.754-11.325,12.955-18.855,4.091-9.368,6.404-20.544,6.73-32.996,.089-3.587,.03-7.204-.237-10.85Zm-76.278-112.031c.03-.03,.059-.03,.089-.03,.86-.474,1.453-.445,2.312,0,1.69,.919,3.409,2.876,5.04,5.781,6.314,11.058,11.858,35.604,13.341,66.228,.148,3.35,.266,6.789,.326,10.287,.059,2.639,.089,5.307,.059,8.004l-21.937-11.829-8.953-4.803-7.026-3.795c.089-2.668,.208-5.247,.356-7.797,.207-3.35,.444-6.581,.771-9.694,2.787-29.883,9.546-48.856,15.623-52.354Zm-49.508,4.921l.03-.029c2.668-3.054,5.692-5.573,9.042-7.5,2.698-1.571,5.574-2.727,8.598-3.498,7.204-1.808,15.238-1.304,23.657,1.453-8.509,9.101-13.489,30.446-15.89,52.473-.355,3.202-.652,6.403-.89,9.605-.178,2.609-.355,5.188-.474,7.737l-21.226-11.443-9.279-5.01-7.352-3.943c.89-16.839,5.751-30.683,13.785-39.844Zm-13.845,49.894l8.479,4.565,9.842,5.307,19.24,10.376c-.267,14.556,.415,29.764,2.046,43.965,.771,6.789,1.778,13.341,2.994,19.477,1.364,7.056,3.053,13.518,5.01,19.151-26.711-23.865-46.218-64.983-47.611-102.841Zm67.563,115.292c-.86,.504-1.482,.534-2.372,.03-3.498-1.868-6.996-8.182-10.02-17.787-1.571-4.98-3.024-10.88-4.239-17.491-2.876-15.149-4.654-34.152-4.536-55.022l7.441,4.002,9.071,4.892,21.434,11.532c-.859,23.776-4.091,42.541-8.093,54.696-1.453,4.358-2.965,7.856-4.536,10.465-1.394,2.312-2.787,3.884-4.15,4.684Zm48.026-3.32c-2.253,2.372-4.802,4.358-7.559,5.959-2.757,1.601-5.722,2.757-8.805,3.498-7.174,1.749-15.119,1.245-23.449-1.482,1.304-1.393,2.52-3.054,3.646-4.98,1.542-2.579,2.935-5.633,4.18-9.042,5.514-14.823,8.449-36.227,9.428-55.763l6.285,3.409,8.449,4.536,23.094,12.451c-.919,17.787-6.315,32.314-15.268,41.415Zm-6.937-63.501l-8.568-4.625-6.73-3.617c.059-2.639,.059-5.277,.059-7.945-.03-3.38-.089-6.818-.207-10.228-.8-23.954-4.121-47.848-9.872-64.39,4.477,4.002,8.775,8.508,12.807,13.4,4.032,4.892,7.826,10.168,11.295,15.772,10.198,16.424,17.758,35.367,21.286,54.37,.711,3.676,1.245,7.352,1.63,10.998,.297,2.757,.504,5.514,.593,8.271l-22.294-12.007Z" style="fill: #9dcbf7;"/>
      <path d="M510.998,285.49l-21.937-11.829-8.953-4.803-7.026-3.795,7.086-4.121,9.042-5.277,21.404,11.532c.148,3.35,.266,6.789,.326,10.287,.059,2.639,.089,5.307,.059,8.004Z" style="fill: #4c95db;"/>
      <path d="M542.067,362.005c-2.253,2.372-4.802,4.358-7.559,5.959-2.757,1.601-5.722,2.757-8.805,3.498-7.174,1.749-15.119,1.245-23.449-1.482l6.315-3.706h.029l9.754-5.692c8.42,2.757,16.483,3.261,23.717,1.423Z" style="fill: #4c95db;"/>
      <path d="M534.241,308.139c-2.401,22.027-7.382,43.342-15.89,52.443l-9.754,5.692h-.029l-6.315,3.706c1.304-1.393,2.52-3.054,3.646-4.98,1.542-2.579,2.935-5.633,4.18-9.042,5.514-14.823,8.449-36.227,9.428-55.763l6.285,3.409,8.449,4.536Z" style="fill: #4c95db;"/>
      <path d="M502.727,350.176c-1.453,4.358-2.965,7.856-4.536,10.465-1.394,2.312-2.787,3.884-4.15,4.684-.86,.504-1.482,.534-2.372,.03-3.498-1.868-6.996-8.182-10.02-17.787-1.571-4.98-3.024-10.88-4.239-17.491-2.876-15.149-4.654-34.152-4.536-55.022l7.441,4.002,9.071,4.892c1.482,30.594,7.026,55.171,13.341,66.228Z" style="fill: #4c95db;"/>
      <path d="M474.09,352.874c-26.711-23.865-46.218-64.983-47.611-102.841l8.479,4.565,9.842,5.307c3.528,18.973,11.058,37.917,21.286,54.341,.771,6.789,1.778,13.341,2.994,19.477,1.364,7.056,3.053,13.518,5.01,19.151Z" style="fill: #4c95db;"/>
      <path d="M457.992,189.112c-8.983,9.101-14.378,23.628-15.327,41.474l-9.042,5.277-7.085,4.121c.89-16.839,5.751-30.683,13.785-39.844l.03-.029c2.668-3.054,5.692-5.573,9.042-7.5,2.698-1.571,5.574-2.727,8.598-3.498Z" style="fill: #4c95db;"/>
      <path d="M465.759,243.037c-.355,3.202-.652,6.403-.89,9.605-.178,2.609-.355,5.188-.474,7.737l-21.226-11.443-9.279-5.01-7.352-3.943,7.085-4.121,9.042-5.277,23.094,12.451Z" style="fill: #4c95db;"/>
      <path d="M497.273,200.97c-4.002,12.155-7.234,30.92-8.064,54.696l-9.042,5.277-7.086,4.121c.089-2.668,.208-5.247,.356-7.797,.207-3.35,.444-6.581,.771-9.694,2.787-29.883,9.546-48.856,15.623-52.354,.03-.03,.059-.03,.089-.03,.86-.474,1.453-.445,2.312,0,1.69,.919,3.409,2.876,5.04,5.781Z" style="fill: #4c95db;"/>
      <path d="M535.96,280.865l-9.042,5.247v.03l-7.086,4.121c.059-2.639,.059-5.277,.059-7.945-.03-3.38-.089-6.818-.207-10.228-.8-23.954-4.121-47.848-9.872-64.39,4.477,4.002,8.775,8.508,12.807,13.4,4.032,4.892,7.826,10.168,11.295,15.772,1.631,14.2,2.312,29.438,2.046,43.994Z" style="fill: #4c95db;"/>
      <path d="M557.424,310.511l-22.294-12.007-8.568-4.625-6.73-3.617,7.086-4.121v-.03l9.042-5.247,19.24,10.376c.711,3.676,1.245,7.352,1.63,10.998,.297,2.757,.504,5.514,.593,8.271Z" style="fill: #4c95db;"/>
    </g>
  </g>
  <g id="particule">
    <path d="M384.497,406.789c0,1.215-.767,2.199-1.711,2.199s-1.711-.985-1.711-2.199,.766-2.2,1.711-2.2,1.711,.985,1.711,2.2Z" style="fill: lime; stroke: lime; stroke-miterlimit: 10; stroke-width: 3px;"/>
    <path d="M423.21,376.495c0,1.384-.872,2.505-1.948,2.505s-1.948-1.121-1.948-2.505,.872-2.506,1.948-2.506,1.948,1.122,1.948,2.506Z" style="fill: lime; stroke: lime; stroke-miterlimit: 10; stroke-width: 6px;"/>
    <path d="M465.879,332.803c0,1.925-1.213,3.484-2.71,3.484s-2.71-1.559-2.71-3.484,1.213-3.484,2.71-3.484,2.71,1.56,2.71,3.484Z" style="fill: lime; stroke: lime; stroke-miterlimit: 10; stroke-width: 3px;"/>
    <path d="M402.639,230.167c0,1.072-.676,1.941-1.51,1.941s-1.51-.868-1.51-1.941,.676-1.941,1.51-1.941,1.51,.87,1.51,1.941Z" style="fill: lime; stroke: lime; stroke-miterlimit: 10; stroke-width: 3px;"/>
    <path d="M373.532,179.168c0,1.213-.765,2.196-1.708,2.196s-1.708-.983-1.708-2.196,.765-2.197,1.708-2.197,1.708,.983,1.708,2.197Z" style="fill: lime; stroke: lime; stroke-miterlimit: 10; stroke-width: 3px;"/>
    <path d="M441.95,92.76c0,.463-.293,.84-.653,.84s-.653-.377-.653-.84,.293-.84,.653-.84,.653,.376,.653,.84Z" style="fill: lime; stroke: lime; stroke-miterlimit: 10; stroke-width: 3px;"/>
    <path d="M465.144,140.84c0,.467-.294,.843-.656,.843s-.656-.377-.656-.843,.294-.843,.656-.843,.656,.378,.656,.843Z" style="fill: lime; stroke: lime; stroke-miterlimit: 10; stroke-width: 3px;"/>
    <path d="M493.555,162.206c0,.764-.482,1.384-1.076,1.384s-1.076-.62-1.076-1.384,.482-1.384,1.076-1.384,1.076,.62,1.076,1.384Z" style="fill: lime; stroke: lime; stroke-miterlimit: 10; stroke-width: 3px;"/>
    <path d="M456.929,226.758c0,.965-.609,1.747-1.359,1.747s-1.36-.782-1.36-1.747,.609-1.749,1.36-1.749,1.359,.783,1.359,1.749Z" style="fill: lime; stroke: lime; stroke-miterlimit: 10; stroke-width: 6px;"/>
    <path d="M478.98,254.135c0,1.286-.811,2.328-1.81,2.328s-1.81-1.042-1.81-2.328,.81-2.328,1.81-2.328,1.81,1.042,1.81,2.328Z" style="fill: lime; stroke: lime; stroke-miterlimit: 10; stroke-width: 3px;"/>
    <path d="M506.734,299.585c0,1.351-.852,2.446-1.902,2.446s-1.902-1.095-1.902-2.446,.852-2.446,1.902-2.446,1.902,1.095,1.902,2.446Z" style="fill: lime; stroke: lime; stroke-miterlimit: 10; stroke-width: 3px;"/>
    <path d="M558.663,298.437c0,.92-.58,1.666-1.296,1.666s-1.296-.746-1.296-1.666,.58-1.667,1.296-1.667,1.296,.746,1.296,1.667Z" style="fill: lime; stroke: lime; stroke-miterlimit: 10; stroke-width: 3px;"/>
    <path d="M468.965,410.314c0,.732-.462,1.326-1.031,1.326s-1.032-.594-1.032-1.326,.462-1.326,1.032-1.326,1.031,.594,1.031,1.326Z" style="fill: lime; stroke: lime; stroke-miterlimit: 10; stroke-width: 3px;"/>
    <path d="M436.705,463.487c0,1.351-.852,2.446-1.902,2.446s-1.902-1.095-1.902-2.446,.852-2.446,1.902-2.446,1.902,1.095,1.902,2.446Z" style="fill: lime; stroke: lime; stroke-miterlimit: 10; stroke-width: 3px;"/>
    <path d="M572.663,461.82c0,.92-.58,1.666-1.296,1.666s-1.296-.746-1.296-1.666,.58-1.667,1.296-1.667,1.296,.746,1.296,1.667Z" style="fill: lime; stroke: lime; stroke-miterlimit: 10; stroke-width: 6px;"/>
    <path d="M518.316,437.365c0,.512-.324,.928-.722,.928s-.722-.416-.722-.928,.323-.929,.722-.929,.722,.416,.722,.929Z" style="fill: lime; stroke: lime; stroke-miterlimit: 10; stroke-width: 3px;"/>
    <path d="M527.24,481.134c0,.937-.59,1.695-1.318,1.695s-1.318-.758-1.318-1.695,.59-1.694,1.318-1.694,1.318,.758,1.318,1.694Z" style="fill: lime; stroke: lime; stroke-miterlimit: 10; stroke-width: 3px;"/>
    <path d="M565.072,421.132c0,.92-.58,1.666-1.296,1.666s-1.296-.746-1.296-1.666,.58-1.667,1.296-1.667,1.296,.746,1.296,1.667Z" style="fill: lime; stroke: lime; stroke-miterlimit: 10; stroke-width: 3px;"/>
    <path d="M572.089,340.854c0,.512-.324,.928-.722,.928s-.722-.416-.722-.928,.323-.929,.722-.929,.722,.416,.722,.929Z" style="fill: lime; stroke: lime; stroke-miterlimit: 10; stroke-width: 3px;"/>
    <path d="M581.013,384.624c0,.937-.59,1.695-1.318,1.695s-1.318-.758-1.318-1.695,.59-1.694,1.318-1.694,1.318,.758,1.318,1.694Z" style="fill: lime; stroke: lime; stroke-miterlimit: 10; stroke-width: 3px;"/>
    <path d="M605.863,246.751c0,.433-.273,.783-.608,.783s-.609-.35-.609-.783,.273-.782,.609-.782,.608,.35,.608,.782Z" style="fill: lime; stroke: lime; stroke-miterlimit: 10; stroke-width: 3px;"/>
    <path d="M632.408,333.759c0,1.396-.88,2.529-1.967,2.529s-1.967-1.132-1.967-2.529,.881-2.529,1.967-2.529,1.967,1.132,1.967,2.529Z" style="fill: lime; stroke: lime; stroke-miterlimit: 10; stroke-width: 6px;"/>
    <path d="M649.375,222.101c0,.565-.357,1.023-.797,1.023s-.796-.458-.796-1.023,.356-1.023,.796-1.023,.797,.458,.797,1.023Z" style="fill: lime; stroke: lime; stroke-miterlimit: 10; stroke-width: 3px;"/>
    <path d="M605.319,184.514c0,.705-.444,1.276-.993,1.276s-.992-.571-.992-1.276,.444-1.277,.992-1.277,.993,.572,.993,1.277Z" style="fill: lime; stroke: lime; stroke-miterlimit: 10; stroke-width: 3px;"/>
    <path d="M619.778,114.399c0,1.165-.734,2.11-1.641,2.11s-1.641-.945-1.641-2.11,.735-2.111,1.641-2.111,1.641,.945,1.641,2.111Z" style="fill: lime; stroke: lime; stroke-miterlimit: 10; stroke-width: 3px;"/>
    <path d="M617.689,137.405c0,1.103-.696,1.997-1.554,1.997s-1.554-.895-1.554-1.997,.695-1.998,1.554-1.998,1.554,.895,1.554,1.998Z" style="fill: lime; stroke: lime; stroke-miterlimit: 10; stroke-width: 3px;"/>
    <path d="M604.601,58.077c0,.951-.599,1.72-1.338,1.72s-1.337-.77-1.337-1.72,.599-1.72,1.337-1.72,1.338,.77,1.338,1.72Z" style="fill: lime; stroke: lime; stroke-miterlimit: 10; stroke-width: 3px;"/>
    <ellipse cx="605.558" cy="18.67" rx="1.267" ry="1.629" style="fill: lime; stroke: lime; stroke-miterlimit: 10; stroke-width: 6px;"/>
    <path d="M473.119,11.976c0,.896-.565,1.621-1.261,1.621s-1.261-.725-1.261-1.621,.565-1.621,1.261-1.621,1.261,.726,1.261,1.621Z" style="fill: lime; stroke: lime; stroke-miterlimit: 10; stroke-width: 3px;"/>
    <path d="M373.992,90.986c0,1.127-.711,2.042-1.588,2.042s-1.588-.914-1.588-2.042,.71-2.042,1.588-2.042,1.588,.914,1.588,2.042Z" style="fill: lime; stroke: lime; stroke-miterlimit: 10; stroke-width: 6px;"/>
    <path d="M376.152,137.971c0,1.045-.659,1.893-1.472,1.893s-1.472-.847-1.472-1.893,.659-1.893,1.472-1.893,1.472,.848,1.472,1.893Z" style="fill: lime; stroke: lime; stroke-miterlimit: 10; stroke-width: 3px;"/>
    <path d="M540.188,158.413c0,1.213-.765,2.196-1.708,2.196s-1.708-.983-1.708-2.196,.765-2.197,1.708-2.197,1.708,.983,1.708,2.197Z" style="fill: lime; stroke: lime; stroke-miterlimit: 10; stroke-width: 6px;"/>
    <path d="M540.647,70.231c0,1.127-.711,2.042-1.588,2.042s-1.588-.914-1.588-2.042,.71-2.042,1.588-2.042,1.588,.914,1.588,2.042Z" style="fill: lime; stroke: lime; stroke-miterlimit: 10; stroke-width: 3px;"/>
    <path d="M496.915,88.944c0,1.045-.659,1.893-1.472,1.893s-1.472-.847-1.472-1.893,.659-1.893,1.472-1.893,1.472,.848,1.472,1.893Z" style="fill: lime; stroke: lime; stroke-miterlimit: 10; stroke-width: 3px;"/>
    <path d="M353.551,340.05c0,.537-.339,.973-.757,.973s-.757-.436-.757-.973,.339-.974,.757-.974,.757,.436,.757,.974Z" style="fill: lime; stroke: lime; stroke-miterlimit: 10; stroke-width: 3px;"/>
    <path d="M383.738,344.541c0,.677-.427,1.225-.953,1.225s-.952-.548-.952-1.225,.426-1.225,.952-1.225,.953,.549,.953,1.225Z" style="fill: lime; stroke: lime; stroke-miterlimit: 10; stroke-width: 3px;"/>
  </g>
  <g id="lumiere">
    <path d="M345.266-52.725V445.486c.175,2.082,1.481,3.899,3.398,4.728l143.15,82.745c5.147,2.603,11.225,2.603,16.372,0l143.15-82.745c1.916-.831,3.221-2.647,3.399-4.728V-52.725H345.266Z" style="fill: url(#Dégradé_sans_nom_16);"/>
  </g>
</svg>