<svg id="Calque_1" data-name="Calque 1" xmlns="http://www.w3.org/2000/svg" xmlns:xlink="http://www.w3.org/1999/xlink" viewBox="0 0 1000 1000"><defs><radialGradient id="Dégradé_sans_nom_3" cx="513.106" cy="392.486" r="142.737" gradientTransform="translate(448.949 -218.809) rotate(45)" gradientUnits="userSpaceOnUse"><stop offset="0.011" stop-color="#75b4f0"/><stop offset="0.766" stop-color="#0c3157"/></radialGradient></defs><ellipse cx="496.167" cy="541.604" rx="477.518" ry="276.163" style="fill:none;stroke:#144b82;stroke-linecap:round;stroke-linejoin:round;stroke-width:3px;stroke-dasharray:5.011226177215576,8.017962455749512"/><ellipse cx="495.087" cy="541.604" rx="263.029" ry="152.118" style="fill:none;stroke:#0c3157;stroke-linecap:round;stroke-linejoin:round;stroke-width:2px"/><ellipse cx="495.087" cy="541.604" rx="192.629" ry="111.404" style="fill:none;stroke:#0c3157;stroke-linecap:round;stroke-linejoin:round;stroke-width:2px"/><path d="M596.264,584.808c51.522-32.467,51.522-85.593,0-118.058s-135.6-32.467-186.828,0-51.234,85.591,0,118.058S544.741,617.274,596.264,584.808Z" style="fill:#001a33;opacity:0.37"/><path d="M618.772,523.333V500.5h-8.411c-6.272-9.417-15.957-18.241-29.122-25.8-50.291-28.872-132.352-28.872-182.359,0-13.091,7.558-22.721,16.382-28.958,25.8h-8.486v24.758h.018c-.877,19.669,11.574,39.5,37.426,54.431,50.007,28.871,132.068,28.871,182.359,0C608.087,564.278,620.59,543.628,618.772,523.333Z" style="fill:#020e1e"/><path d="M581.239,556.933c50.289-28.872,50.289-76.117,0-104.988s-132.352-28.872-182.358,0-50.009,76.116,0,104.988S530.948,585.8,581.239,556.933Z" style="fill:#001a33"/><path d="M900.384,967.989c74.344-42.683,74.344-112.526,0-155.207s-195.661-42.684-269.587,0-73.929,112.524,0,155.207S826.037,1010.67,900.384,967.989Z" style="fill:#001a33;opacity:0.37"/><path d="M955.87,831.269v-33.75H943.435c-9.272-13.922-23.589-26.966-43.051-38.139-74.347-42.683-195.661-42.683-269.587,0-19.354,11.173-33.59,24.217-42.811,38.139H575.442v36.6h.026c-1.3,29.078,17.111,58.4,55.329,80.467,73.926,42.682,195.24,42.682,269.587,0C940.074,891.8,958.558,861.272,955.87,831.269Z" style="fill:#020e1e"/><path d="M900.384,880.942c74.344-42.684,74.344-112.526,0-155.208s-195.661-42.683-269.587,0-73.929,112.524,0,155.208S826.037,923.623,900.384,880.942Z" style="fill:#001a33"/><path d="M345.419,356.937c74.344-42.684,74.344-112.526,0-155.208s-195.661-42.683-269.587,0-73.929,112.524,0,155.208S271.072,399.618,345.419,356.937Z" style="fill:#001a33;opacity:0.37"/><path d="M400.905,220.216V186.467H388.471c-9.273-13.923-23.59-26.966-43.052-38.14-74.347-42.683-195.661-42.683-269.587,0-19.354,11.174-33.59,24.217-42.81,38.14H20.477v36.6H20.5c-1.3,29.077,17.111,58.4,55.329,80.466,73.926,42.682,195.24,42.682,269.587,0C385.109,280.747,403.593,250.219,400.905,220.216Z" style="fill:#020e1e"/><path d="M345.419,269.889c74.344-42.683,74.344-112.526,0-155.207S149.758,72,75.832,114.682s-73.929,112.524,0,155.207S271.072,312.57,345.419,269.889Z" style="fill:#001a33"/><rect width="1000" height="1000" style="fill:none"/><circle cx="488.6" cy="432.525" r="87.704" transform="translate(-162.734 472.176) rotate(-45)" style="fill:url(#Dégradé_sans_nom_3)"/><path d="M474.23,346c-.344.057-.69.11-1.033.171a6.316,6.316,0,0,0-.427.818l.68.293A4.681,4.681,0,0,1,474.23,346Z" style="fill:#f8faff"/><path d="M576.082,438.746a31.877,31.877,0,0,1-1.253,5.228,95.239,95.239,0,0,0-12.013-36.749c2.5-6.446,2.558-13.543.17-21.174-.559-.891-1.128-1.775-1.717-2.644,3.231,8.344,3.6,16.065,1.068,23.006-.45-.754-.9-1.506-1.375-2.247a97.1,97.1,0,0,0-29.585-29.272q-1.017-.659-2.033-1.284a16.592,16.592,0,0,0,3.408-9.8,14.719,14.719,0,0,0-.119-1.773,81.742,81.742,0,0,1,22.407,13.239q-1.426-1.654-2.934-3.239a82.518,82.518,0,0,0-19.59-10.865,16.836,16.836,0,0,0-2.3-5.862q-.675-.365-1.358-.717a16.862,16.862,0,0,1,2.831,6.269,80.2,80.2,0,0,0-20.909-4.769,78.562,78.562,0,0,0-20.085.743c2.343-3.528,6.647-9.461,10.112-11.163-.38-.053-.759-.11-1.141-.158-3.726,2.4-7.891,8.3-9.982,11.5-.278.053-.542.105-.784.154-2.089-3.221-6.436-9.439-10.269-11.785-.42.048-.84.092-1.257.145,3.682,1.565,8.435,8.276,10.746,11.807l-.053.012a76.179,76.179,0,0,0-22.712-1.26,80.192,80.192,0,0,0-20.628,4.664,16.589,16.589,0,0,1,2.349-5.5c-.425.228-.846.463-1.267.7a16.655,16.655,0,0,0-1.905,5.106,81.974,81.974,0,0,0-16.316,8.463q-1.484,1.437-2.9,2.943a80.914,80.914,0,0,1,19.088-10.536,14.833,14.833,0,0,0-.133,1.877,16.593,16.593,0,0,0,3.414,9.81c-.381.235-.762.465-1.144.707a95.235,95.235,0,0,0-29.612,28.882c-.48.747-.942,1.5-1.4,2.267a34.79,34.79,0,0,1,.586-21.407q-.765,1.152-1.494,2.329a35.1,35.1,0,0,0,.406,19.925,94.119,94.119,0,0,0-11.973,36.468,35,35,0,0,1-1.483-7.722h-.014q.1,3.437.457,6.8c.243.884.523,1.778.851,2.681q-.113,1.054-.206,2.119.237,1.465.522,2.914.115-1.779.277-3.514c3.4,8.2,10.6,16.907,24.693,24.17,2.044,12.645,7.446,24.8,16.169,36.317-1.458-.448-2.872-.917-4.263-1.4.82.556,1.652,1.1,2.492,1.624q1.311.42,2.658.825a146.873,146.873,0,0,0,28.088,5.49,51.5,51.5,0,0,0,2.935,6.169c.311.046.623.088.935.13a49.451,49.451,0,0,1-3.047-6.22q6.437.576,12.883.579a143.756,143.756,0,0,0,18.665-1.224,49.209,49.209,0,0,1-3.314,6.715c.317-.047.633-.1.948-.151a51.2,51.2,0,0,0,3.2-6.673,145.02,145.02,0,0,0,25.8-5.978c3.153-1.041,6.124-2.15,8.944-3.315q1.213-.9,2.4-1.831c-2.652,1.177-5.455,2.3-8.43,3.361,8.458-11.19,13.766-22.932,15.878-35.1,11.908-6.2,19.975-13.817,23.929-22.6.086.9.153,1.82.22,2.738.186-.934.354-1.874.51-2.819-.043-.447-.085-.9-.132-1.341.2-.515.387-1.035.563-1.557Q575.9,441.386,576.082,438.746Zm-45.107-63.23a96.168,96.168,0,0,1,30.979,31.866c-.093.23-.178.462-.278.69-3.281,7.477-9.627,13.231-16.788,17.61-6.731-16.409-17.618-30.946-28.026-42.316a33.649,33.649,0,0,0,12.029-9.164Q529.932,374.843,530.975,375.516ZM505.554,422.6c.947,5.082,1.845,10.444,2.63,15.956a121.855,121.855,0,0,1-37.957.4c.783-5.565,1.68-10.979,2.627-16.11,2.266-12.282,4.974-23.931,7.532-33.872a76.335,76.335,0,0,0,17.572-.223C500.534,398.68,503.266,410.322,505.554,422.6Zm-15.148-62.645a209.372,209.372,0,0,1,25.248,23.185,61.676,61.676,0,0,1-17.144,4.8C494.966,374.353,491.741,364.08,490.406,359.956Zm-18.279,62.753c-.949,5.141-1.848,10.566-2.632,16.143a124.621,124.621,0,0,1-16.934-3.8,86.037,86.037,0,0,1-18.832-7.9c6.6-16.613,17.367-31.385,27.645-42.938a64.049,64.049,0,0,0,18.267,4.692C477.088,398.833,474.388,410.456,472.127,422.709Zm-2,16.99a122.395,122.395,0,0,0,38.159-.413c1.929,13.751,3.132,28.407,2.573,42.046a143.291,143.291,0,0,1-43.259.289C467.046,468.024,468.227,453.417,470.126,439.7Zm36.154-17.242c-2.283-12.258-5.01-23.882-7.583-33.8a62.033,62.033,0,0,0,17.469-4.962c10.429,11.366,21.364,25.93,28.083,42.373a91.636,91.636,0,0,1-17.99,8,122.936,122.936,0,0,1-17.346,4.357C508.127,432.91,507.228,427.544,506.28,422.457ZM490.13,357.7a80.367,80.367,0,0,1,41.717,4.034,14.183,14.183,0,0,1,.165,2.074,15.945,15.945,0,0,1-3.289,9.427,125.734,125.734,0,0,0-38.711-15.352C490.052,357.822,490.089,357.764,490.13,357.7Zm38.143,16.128a32.989,32.989,0,0,1-11.918,8.987A207.961,207.961,0,0,0,490,358.719l-.03-.089A125,125,0,0,1,528.273,373.828Zm-39.291-14.3c.008-.014.1-.169.262-.43.1.17.181.295.223.364,1.148,3.511,4.542,14.169,8.3,28.573a76.075,76.075,0,0,1-9.57.605c-2.6,0-5.149-.137-7.628-.385,3.756-14.519,7.152-25.265,8.3-28.794Zm-.69-.689c-1.006,3.082-4.543,14.166-8.465,29.34a63.783,63.783,0,0,1-17.95-4.535A206.41,206.41,0,0,1,488.292,358.841Zm-27.12,24.49c-5.611-2.5-10.12-5.759-13.045-9.5a123.428,123.428,0,0,1,39.246-15.215A209.312,209.312,0,0,0,461.172,383.331Zm-16.784-19.523a14.255,14.255,0,0,1,.178-2.179,80.153,80.153,0,0,1,42.1-3.807l.047.162a124.767,124.767,0,0,0-39.039,15.253A15.946,15.946,0,0,1,444.388,363.808Zm1.9,11.156c.408-.258.815-.5,1.222-.755,2.969,3.811,7.512,7.129,13.157,9.684-10.253,11.555-20.966,26.294-27.58,42.869-8.05-4.842-13.7-10.754-16.829-17.7q-.576-1.28-1.015-2.547A94.285,94.285,0,0,1,446.291,374.964ZM403,444.454a93.8,93.8,0,0,1,11.761-37.122c.248.671.516,1.345.821,2.022,3.207,7.122,8.987,13.169,17.227,18.1a90.786,90.786,0,0,0-5.462,20.426,74.706,74.706,0,0,0,.036,21.45C413.032,461.819,406.076,452.8,403,444.454Zm25.08,3.535a90.039,90.039,0,0,1,5.37-20.142,86.959,86.959,0,0,0,18.9,7.916,125.543,125.543,0,0,0,17.047,3.819c-1.9,13.71-3.076,28.311-2.533,41.929a146.652,146.652,0,0,1-20.139-4.5,109.982,109.982,0,0,1-18.521-7.255A73.857,73.857,0,0,1,428.08,447.989Zm16.832,58.945c-8.889-11.5-14.421-23.636-16.563-36.27a111.781,111.781,0,0,0,18.162,7.056,147.55,147.55,0,0,0,20.385,4.548c.494,11.034,2.144,21.385,5.474,30.06A146.185,146.185,0,0,1,444.912,506.934Zm60.439,4.814a143.079,143.079,0,0,1-32.158.655c-3.378-8.627-5.052-18.973-5.556-30.025a143.794,143.794,0,0,0,43.183-.287C510.319,492.99,508.67,503.2,505.351,511.748Zm27.982-6.652c-.627.217-1.244.438-1.885.649a144.165,144.165,0,0,1-25.259,5.887c3.263-8.587,4.883-18.793,5.372-29.661a145.065,145.065,0,0,0,22.046-5.413,115.305,115.305,0,0,0,16.028-6.565C547.419,482.17,541.976,493.913,533.333,505.1Zm16.456-35.956a117.585,117.585,0,0,1-16.415,6.715,144.246,144.246,0,0,1-21.777,5.36c.548-13.66-.656-28.311-2.583-42.054a123.629,123.629,0,0,0,17.478-4.387,92.5,92.5,0,0,0,18.038-8.011,87.645,87.645,0,0,1,5.431,19.657A71.991,71.991,0,0,1,549.789,469.14Zm.819-.427a72.825,72.825,0,0,0,.085-22.4,88.434,88.434,0,0,0-5.522-19.936c7.315-4.456,13.818-10.334,17.183-18,.027-.06.048-.121.074-.182a94.875,94.875,0,0,1,11.824,37.367Q568.873,459.17,550.608,468.713Z" style="fill:#f8faff"/><path d="M505.038,347.281l.68-.293c-.082-.192-.17-.372-.262-.543-.331-.064-.662-.13-.994-.19A5.171,5.171,0,0,1,505.038,347.281Z" style="fill:#f8faff"/><path d="M490.165,547.755c-17.708,0-35.417-3.892-48.9-11.675-16.327-9.426-23.488-23-19.157-36.3a.741.741,0,1,1,1.409.459c-4.1,12.586,2.812,25.5,18.489,34.554,13.275,7.665,30.719,11.5,48.157,11.5s34.879-3.831,48.158-11.5c15.922-9.192,22.772-22.293,18.323-35.045a.741.741,0,0,1,1.4-.488c4.7,13.476-2.395,27.24-18.982,36.816C525.582,543.863,507.874,547.755,490.165,547.755Z" style="fill:lime"/><path d="M490.165,508.2c-28.259,0-56.518-6.21-78.032-18.631-19.3-11.143-30.75-26.036-32.241-41.938-1.31-13.987,5.309-28.007,18.64-39.478a.741.741,0,0,1,.966,1.123c-12.956,11.148-19.4,24.721-18.131,38.217,1.445,15.41,12.634,29.9,31.506,40.792,42.619,24.607,111.966,24.607,154.584,0,19.353-11.172,30.571-26.036,31.59-41.854.927-14.386-6.79-28.593-21.731-40a.741.741,0,1,1,.9-1.177c15.347,11.721,23.27,26.38,22.311,41.275-1.053,16.328-12.533,31.614-32.328,43.043C546.684,501.988,518.425,508.2,490.165,508.2Z" style="fill:lime"/><path d="M490.165,460.431c-35.76,0-71.521-7.859-98.746-23.577-26.407-15.246-40.949-35.644-40.949-57.438s14.542-42.192,40.949-57.439c54.449-31.435,143.044-31.435,197.492,0,26.407,15.247,40.95,35.646,40.95,57.439s-14.543,42.192-40.95,57.438C561.687,452.572,525.926,460.431,490.165,460.431Zm-98-24.86c54.041,31.2,141.97,31.2,196.011,0,25.929-14.97,40.208-34.913,40.208-56.155S614.1,338.231,588.171,323.26c-54.04-31.2-141.971-31.2-196.011,0-25.93,14.971-40.209,34.914-40.209,56.156S366.231,420.6,392.16,435.571Z" style="fill:lime"/><polygon points="856.495 706.685 856.495 762.564 851.738 765.181 625.414 629.146 621.656 577.786 626.414 575.17 856.495 706.685" style="fill:#08bf08"/><polygon points="851.738 709.302 851.738 765.181 620.657 631.762 621.656 577.786 851.738 709.302" style="fill:lime"/><path d="M638.458,617.249l.344,9.788-3.688-1.984-.881-25.043,3.689,1.984.313,8.911a2.944,2.944,0,0,1,3.668-.312,9.148,9.148,0,0,1,3.575,3.91,13.916,13.916,0,0,1,1.616,6.167l.388,11.036-3.688-1.983-.348-9.923q-.149-4.185-2.386-5.39a1.577,1.577,0,0,0-1.892.059Q638.383,615.124,638.458,617.249Z" style="fill:#fff"/><path d="M654.718,621.36l.286,8.134a4.285,4.285,0,0,0,.451,1.849,2.458,2.458,0,0,0,.955,1.093,1.191,1.191,0,0,0,1.7-.343l1.5,4.284a3.068,3.068,0,0,1-3.551.209,8.532,8.532,0,0,1-3.283-3.453,11.626,11.626,0,0,1-1.48-5.4l-.295-8.37-1.549-.833-.128-3.646,1.549.834-.191-5.434,3.714,2,.19,5.433,3.2,1.72.128,3.646Z" style="fill:#fff"/><path d="M665.537,627.181l.286,8.133a4.317,4.317,0,0,0,.45,1.849,2.465,2.465,0,0,0,.956,1.093,1.191,1.191,0,0,0,1.7-.343l1.5,4.284a3.068,3.068,0,0,1-3.551.209,8.528,8.528,0,0,1-3.283-3.454,11.615,11.615,0,0,1-1.48-5.4l-.294-8.37-1.551-.834-.128-3.645,1.55.834L661.5,616.1l3.714,2,.19,5.434,3.2,1.719.128,3.645Z" style="fill:#fff"/><path d="M679.512,630.824a11.185,11.185,0,0,1,4.213,4.866,17.585,17.585,0,0,1,2.041,7.638q.141,4.015-1.571,5.744a3.18,3.18,0,0,1-4.135.425,9.654,9.654,0,0,1-3.991-4.764l.315,8.944-3.689-1.984-.869-24.7,3.689,1.984.072,2.026Q677.2,629.581,679.512,630.824Zm-3.726,7.218a9.763,9.763,0,0,0,1.025,4.094,5.67,5.67,0,0,0,2.225,2.571,1.706,1.706,0,0,0,2.188-.2,4,4,0,0,0,.832-3.079,10.079,10.079,0,0,0-1.064-4.181,5.861,5.861,0,0,0-2.289-2.689,1.571,1.571,0,0,0-2.149.285A4.612,4.612,0,0,0,675.786,638.042Z" style="fill:#fff"/><path d="M698.479,653.594q.094,2.682-1.288,3.528t-3.594-.344a14.151,14.151,0,0,1-3.1-2.379,20.079,20.079,0,0,1-2.953-3.691l1.512-2.3a13.04,13.04,0,0,0,4.479,4.562,1.373,1.373,0,0,0,1.116.219q.4-.162.383-.8a2.923,2.923,0,0,0-.62-1.492,13.556,13.556,0,0,0-1.708-1.913q-1.11-1.059-1.7-1.708a20.969,20.969,0,0,1-1.35-1.687,8.053,8.053,0,0,1-1.634-4.6q-.088-2.514,1.331-3.306t3.756.463a14.95,14.95,0,0,1,4.748,4.673l-1.258,2.635a10.928,10.928,0,0,0-3.487-3.465q-1.71-.921-1.664.363a2.379,2.379,0,0,0,.58,1.4,21.088,21.088,0,0,0,1.828,1.911q1.274,1.214,1.811,1.785a19.278,19.278,0,0,1,1.3,1.576A7.885,7.885,0,0,1,698.479,653.594Z" style="fill:#fff"/><path d="M701.742,660.315a5.439,5.439,0,0,1-.7-2.445,2.153,2.153,0,0,1,.553-1.773,1.234,1.234,0,0,1,1.507-.034,4.058,4.058,0,0,1,1.567,1.687,5.445,5.445,0,0,1,.7,2.447,2.149,2.149,0,0,1-.553,1.772,1.232,1.232,0,0,1-1.506.035A4.034,4.034,0,0,1,701.742,660.315Z" style="fill:#fff"/><path d="M703.909,650.111a5.446,5.446,0,0,1-.7-2.446,2.152,2.152,0,0,1,.553-1.772,1.234,1.234,0,0,1,1.507-.034,4.045,4.045,0,0,1,1.567,1.687,5.441,5.441,0,0,1,.7,2.447,2.149,2.149,0,0,1-.553,1.772,1.234,1.234,0,0,1-1.506.035A4.047,4.047,0,0,1,703.909,650.111Z" style="fill:#fff"/><path d="M716.235,643.109l3.492,1.878-9.239,25.394-3.468-1.866Z" style="fill:#fff"/><path d="M723.838,647.686l3.492,1.878-9.239,25.393-3.467-1.865Z" style="fill:#fff"/><g style="isolation:isolate"><path d="M815.988,689.55c-.419.18-.839.356-1.252.5-.358.128-.712.24-1.064.347-.175.053-.352.114-.525.162-.52.143-1.034.267-1.538.368l-.037.009h-.007c-.71.14-1.4.229-2.068.3-.192.019-.383.036-.571.049-.423.032-.835.05-1.238.058-.171,0-.345.01-.512.009-.43,0-.845-.017-1.249-.041-.09-.006-.187-.006-.276-.013-.478-.034-.936-.082-1.37-.14-.123-.017-.234-.038-.353-.055-.3-.046-.6-.092-.871-.144-.145-.028-.278-.057-.415-.086-.231-.048-.458-.1-.668-.148l-.369-.094c-.2-.053-.391-.105-.565-.156-.1-.029-.2-.058-.293-.087-.189-.059-.36-.115-.511-.167l-.154-.052c-.216-.077-.388-.143-.5-.188l-.121-.049-.027-.011-19.38,11.262.13.054.021.007c.113.046.272.107.5.187l.04.014.123.04c.151.053.316.107.506.166l.126.041c.049.015.114.031.165.046.176.051.363.1.565.155.077.02.137.04.218.06.047.012.105.023.153.034.21.051.434.1.667.148.1.022.193.046.3.067.035.007.077.012.113.019.275.052.57.1.871.144.1.015.2.035.3.05l.049,0c.434.058.89.106,1.368.141l.045,0c.078.006.165,0,.244.008.4.024.811.039,1.238.042.061,0,.116.006.177.006.108,0,.226-.014.335-.016.4-.007.815-.026,1.239-.057.114-.009.218,0,.333-.016.076-.007.159-.026.236-.033.67-.067,1.353-.156,2.061-.295l.014,0h0l.009,0c.512-.1,1.035-.228,1.564-.374.174-.049.352-.111.528-.164.289-.087.576-.167.869-.269.063-.022.127-.054.19-.076.415-.149.836-.327,1.258-.507.208-.09.414-.166.624-.263.633-.294,1.271-.62,1.914-.993l19.38-11.263c-.643.373-1.281.7-1.914.994C816.405,689.383,816.2,689.46,815.988,689.55Z" style="fill:#041322"/><polygon points="856.289 695.874 827.877 679.47 808.497 690.733 836.909 707.136 865.32 723.539 884.7 712.277 856.289 695.874" style="fill:#08233e"/><path d="M912.488,755.1c-.207-.164-.472-.378-.79-.646-.293-.247-.631-.541-1.01-.882-.356-.32-.748-.683-1.172-1.091q-.6-.57-1.27-1.256-.628-.639-1.32-1.383-.651-.7-1.353-1.5-.679-.773-1.4-1.638t-1.488-1.838q-.831-1.056-1.7-2.229-1.238-1.671-2.538-3.591c-1.287-1.9-2.611-4-3.951-6.288q-1.243-2.129-2.5-4.486-.852-1.6-1.7-3.31-.727-1.462-1.452-3.008-.7-1.488-1.39-3.053t-1.367-3.19q-.69-1.662-1.369-3.406l-.012-.03-19.38,11.262.012.03q.678,1.745,1.369,3.406.679,1.635,1.367,3.19t1.39,3.054q.725,1.545,1.452,3.008.852,1.71,1.7,3.309,1.255,2.36,2.5,4.486c1.34,2.291,2.664,4.383,3.951,6.288q1.3,1.922,2.538,3.591.868,1.174,1.7,2.229.762.967,1.488,1.838t1.4,1.638q.7.8,1.353,1.5.691.744,1.319,1.383.675.687,1.271,1.256c.424.407.816.77,1.172,1.091.379.341.717.634,1.01.882.318.268.583.482.791.646.264.208.435.334.5.384l19.38-11.262C912.924,755.436,912.752,755.309,912.488,755.1Z" style="fill:#041322"/><path d="M893.612,766.748c11.227,76.834-30.376,92.267-57.137,93.335-26.668-31.915-68.047-95.258-56.422-158.9.806.336,16.115,6.728,28.444-10.452l28.412,16.4,28.411,16.4C877.511,754.876,892.807,766.155,893.612,766.748Z" style="fill:#0c3157"/><path d="M914.863,780.563c0-.109.007-.212.007-.322,0-.318-.012-.655-.012-.977,0-1.044-.014-2.1-.041-3.174-.006-.24,0-.467-.009-.708-.009-.3-.032-.613-.043-.913q-.056-1.551-.148-3.144c-.02-.345-.026-.674-.048-1.022-.012-.2-.034-.4-.048-.6q-.13-1.95-.316-3.964c-.025-.27-.038-.526-.064-.8,0-.053-.013-.109-.018-.162q-.246-2.546-.58-5.2c-.016-.128-.026-.248-.042-.376q-.234-1.838-.509-3.726l-19.38,11.262c.2,1.39.382,2.752.551,4.1q.332,2.646.58,5.2c.032.324.053.636.082.958.122,1.341.229,2.665.317,3.964.036.545.065,1.081.095,1.619q.092,1.593.148,3.144c.02.543.039,1.085.052,1.62q.041,1.618.041,3.188c0,.426.008.861,0,1.282-.011,1.447-.042,2.87-.1,4.258-.007.164-.02.32-.027.483q-.087,1.881-.228,3.69c-.034.434-.075.859-.114,1.287q-.129,1.437-.293,2.831c-.049.418-.1.837-.152,1.249-.172,1.317-.36,2.613-.577,3.87-.009.046-.015.094-.023.14-.232,1.332-.5,2.62-.779,3.885-.071.319-.146.633-.22.947-.332,1.413-.683,2.8-1.073,4.128l-.011.035c-.452,1.535-.949,3-1.474,4.432-.061.166-.119.337-.18.5q-.966,2.563-2.079,4.9c-.035.074-.067.151-.1.223-.473.986-.969,1.936-1.478,2.864-.133.243-.27.48-.406.718q-.632,1.111-1.294,2.167c-.124.2-.245.4-.37.592q-.816,1.26-1.675,2.443c-.119.164-.243.32-.363.482q-.712.956-1.453,1.86c-.169.207-.338.415-.51.618-.59.7-1.19,1.383-1.8,2.037-.023.024-.045.05-.068.075-.638.677-1.292,1.322-1.954,1.951-.184.175-.37.346-.556.518q-.8.735-1.612,1.426c-.156.132-.31.269-.467.4q-1.023.846-2.07,1.625c-.156.116-.313.225-.469.338q-.855.621-1.725,1.2c-.2.134-.4.268-.6.4-.723.468-1.45.923-2.185,1.35l19.38-11.263c.735-.427,1.463-.882,2.186-1.35.2-.13.4-.264.6-.4q.87-.58,1.727-1.2c.156-.114.313-.222.468-.338q1.05-.78,2.072-1.626c.155-.129.308-.264.462-.395q.819-.693,1.617-1.431c.186-.171.371-.342.555-.516.661-.629,1.315-1.274,1.954-1.952.023-.024.045-.051.068-.075.614-.654,1.214-1.337,1.8-2.037.171-.2.34-.409.509-.616q.738-.9,1.45-1.856c.122-.165.248-.323.369-.49q.858-1.179,1.671-2.437c.04-.063.085-.12.125-.183.086-.134.164-.282.25-.417q.66-1.052,1.289-2.159c.137-.241.275-.48.409-.724.509-.927,1-1.876,1.477-2.86.013-.027.028-.052.041-.08.022-.046.039-.1.062-.146q1.11-2.339,2.077-4.9c.02-.051.044-.1.063-.148.043-.114.077-.241.118-.355.525-1.429,1.023-2.9,1.474-4.433l.008-.024,0-.007c.39-1.329.741-2.713,1.073-4.124.041-.173.091-.331.131-.5.034-.146.058-.305.091-.453.281-1.263.546-2.548.778-3.877l0-.024c.008-.045.013-.093.021-.137.216-1.252.4-2.541.575-3.852.022-.17.053-.329.075-.5.03-.243.048-.5.077-.749q.165-1.393.293-2.832c.025-.277.062-.539.085-.819.012-.152.017-.314.029-.467q.141-1.811.228-3.69c.006-.14.019-.272.025-.413,0-.023,0-.047,0-.07C914.821,783.43,914.852,782.009,914.863,780.563Z" style="fill:#08233e"/></g><path d="M863.879,767.678c1.671,2.54,1.786,5.887.257,7.475l0,0-31.5,32.567c-1.529,1.589-4.122.818-5.793-1.722l0-.006-17.178-26.047c-1.682-2.578-1.8-5.96-.257-7.578,1.55-1.532,4.112-.768,5.8,1.727L829.4,795.7l28.682-29.753c1.529-1.588,4.123-.817,5.794,1.722Z" style="fill:#fff;fill-rule:evenodd"/><path d="M733.307,461.38l-1.74,1.237v60.624c0,6.353,4.5,14.151,10,17.328l51.879,30.188,4.105-2.011a4.458,4.458,0,0,0,2.5-4V506.806c0-6.354-4.52-14.119-10.046-17.256l-49.97-28.506A6.258,6.258,0,0,0,733.307,461.38Z" style="fill:#05e005"/><path d="M738.564,463.3c-5.525-3.137-10.046-.5-10.046,5.849v55.31c0,6.354,4.5,14.152,10,17.329L787,569.777c5.5,3.177,10,.577,10-5.777V508.026c0-6.354-4.521-14.119-10.047-17.256Z" style="fill:lime"/><g style="opacity:0.32"><path d="M753.416,499.669l-.787-.5q-1.65-.972-1.65.542l0,8.114q0,2.056-1.39,2.209a6,6,0,0,1,1.387,3.807l0,8.461q0,1.282,2.436,2.715l0,4.737-2.063-1.214q-5.622-3.309-5.62-8.861l0-7.958a2.238,2.238,0,0,0-.861-2.1l-1.726-1.015,0-4.737,1.725,1.016q.862.507.863-1.123l0-7.8q0-5.548,5.626-2.24l2.063,1.214Z" style="fill:#144b82"/><path d="M769.393,534.468l.788.5q1.648.971,1.651-.543l0-8.113q0-2.055,1.388-2.211a5.99,5.99,0,0,1-1.385-3.805l0-8.462q0-1.279-2.438-2.716l0-4.735,2.062,1.213q5.625,3.312,5.621,8.861l0,7.957a2.237,2.237,0,0,0,.862,2.1l1.724,1.015,0,4.735-1.724-1.015q-.865-.508-.864,1.122l0,7.8q0,5.55-5.625,2.242l-2.063-1.214Z" style="fill:#144b82"/></g><path d="M747.994,498.313l-2.711,1.356.27,6.8q0,2.056-1.39,2.209a6,6,0,0,1,1.387,3.807l0,8.462q0,1.281,2.436,2.715l0,4.736-2.711,1.356c-3.749-2.206-4.974-7.73-4.972-11.431l0-7.957a2.235,2.235,0,0,0-.861-2.1l-1.726-1.016,0-4.736,1.725,1.015q.862.507.863-1.123l0-7.8q0-5.548,5.626-2.241L748,493.578Z" style="fill:#dde2ff"/><path d="M763.971,533.113l.787.5q1.65.972,1.652-.543l0-8.112q0-2.056,1.388-2.212a5.985,5.985,0,0,1-1.385-3.8l0-8.463q0-1.279-2.437-2.716l-2.708-3.379,2.711-1.356,2.062,1.214q5.625,3.31,5.621,8.86l0,7.957a2.237,2.237,0,0,0,.862,2.1l1.724,1.014,0,4.735-2.711,1.356c-.577-.34.119,6.554.119,6.554,0,3.7-4.968,4.834-4.968,4.834l-2.721-3.806Z" style="fill:#dde2ff"/><polygon points="735.005 503.87 739.072 503.87 739.072 506.645 735.739 505.967 735.005 503.87" style="fill:#ebe9ec"/><path d="M745.283,499.669l-.787-.5q-1.65-.972-1.65.542l0,8.114q0,2.056-1.39,2.209a6,6,0,0,1,1.387,3.807l0,8.461q0,1.282,2.435,2.715l0,4.737-2.063-1.214q-5.622-3.309-5.62-8.861l0-7.958a2.238,2.238,0,0,0-.861-2.1L735,508.607l0-4.737,1.725,1.016q.862.507.863-1.123l0-7.8q0-5.548,5.626-2.24l2.063,1.214Z" style="fill:#fff"/><path d="M761.26,534.468l.787.5q1.65.971,1.652-.543l0-8.113q0-2.055,1.388-2.211a5.99,5.99,0,0,1-1.385-3.805l0-8.462q0-1.279-2.437-2.716l0-4.735,2.062,1.213q5.625,3.312,5.621,8.861l0,7.957a2.235,2.235,0,0,0,.862,2.1l1.724,1.015,0,4.735-1.724-1.015q-.865-.508-.865,1.122l0,7.8q0,5.55-5.626,2.242l-2.062-1.214Z" style="fill:#fff"/><path d="M784.463,541.567l-1.739,1.237v60.623c0,6.354,4.5,14.152,10,17.329l51.879,30.188,4.105-2.011a4.461,4.461,0,0,0,2.5-4V586.993c0-6.354-4.521-14.119-10.047-17.256l-49.969-28.506A6.259,6.259,0,0,0,784.463,541.567Z" style="fill:#08233e"/><path d="M789.721,543.488c-5.526-3.137-10.047-.505-10.047,5.849v55.31c0,6.354,4.5,14.152,10,17.329l48.476,27.987c5.5,3.177,10,.578,10-5.776V588.212c0-6.354-4.522-14.118-10.047-17.255Z" style="fill:#0c3157"/><path d="M790.433,586.375a3.787,3.787,0,0,0,1.542,3l3.488,2.281a3.159,3.159,0,0,1,1.2,1.825c.124.517.267,1.073.393,1.55.2.749.055,1.376-.353,1.587l-2.592,1.341c-.664.343-.714,1.572-.112,2.743l3.794,7.383c.6,1.171,1.627,1.843,2.291,1.5l2.566-1.328c.425-.22,1.039.076,1.548.7q.462.566.938,1.1a3.226,3.226,0,0,1,.845,2.111l-.169,4.143a3.788,3.788,0,0,0,1.541,3l5.638,3.694a1.091,1.091,0,0,0,1.253.118l4.119-2.755v-.006a1.308,1.308,0,0,0,.6-.6l1.693,3.3c.6,1.173,1.628,1.845,2.292,1.5l4.183-2.157a.846.846,0,0,0,.345-.353h.006l4.03-2.528c.664-.343.715-1.57.113-2.743l-1.184-2.306a.842.842,0,0,0,.977-.311,40.619,40.619,0,0,0,3.845-2.528h0a1.711,1.711,0,0,0,.771-1.136l.281-6.745a3.805,3.805,0,0,0-1.542-3l-3.484-2.287a3.15,3.15,0,0,1-1.2-1.825c-.3-1.242-.7-2.7-.723-2.783l3.282-1.687c.665-.341.716-1.568.115-2.741l-3.786-7.385a3.031,3.031,0,0,0-1.527-1.516v-.006h-.02a.972.972,0,0,0-.689,0l-3.672,1.114a2.772,2.772,0,0,1-.5-.481q-.462-.565-.937-1.1a3.229,3.229,0,0,1-.844-2.112l.175-4.139a3.8,3.8,0,0,0-1.538-3L813.79,567.1a1.489,1.489,0,0,0-.732-.263v-.007l-4.615,2.9a.786.786,0,0,0-.463.291h0a1.1,1.1,0,0,0-.167.308l-1.693-3.3a2.659,2.659,0,0,0-1.839-1.583v-.012h-4.754a1.813,1.813,0,0,0-1.52.823l-2.845,4.365a1.007,1.007,0,0,0-.365.56h0a3.057,3.057,0,0,0,.345,2.105l1.216,2.374a1.141,1.141,0,0,0-.414-.055V575.6H794.2a3.174,3.174,0,0,0-3.122,2.6l-.113.61h0a1.414,1.414,0,0,0-.263.822Zm28.2,18.1c-.07-.006-.14-.009-.212-.018-3.532-.439-7.687-4.621-9.66-9.753-1.389-3.615-1.511-6.887-.643-9.1.071.006.14.009.212.018,3.532.438,7.688,4.621,9.66,9.753C819.378,598.992,819.5,602.265,818.632,604.478Z" style="fill:#08233e;opacity:0.30000000000000004"/><path d="M827.258,599.883l-3.485-2.286a3.159,3.159,0,0,1-1.2-1.826c-.3-1.241-.7-2.7-.724-2.782l3.283-1.687c.664-.342.716-1.569.115-2.741l-3.786-7.386a3.031,3.031,0,0,0-1.527-1.516v-.006h-.02a.972.972,0,0,0-.689,0l-3.672,1.115a2.751,2.751,0,0,1-.5-.482q-.46-.565-.936-1.1a3.229,3.229,0,0,1-.844-2.112l.175-4.139a3.8,3.8,0,0,0-1.538-3l-5.638-3.705a1.48,1.48,0,0,0-.731-.262v-.007l-5.079,3.193.484,1.582,3.462.191-.014.346c-.028.657-.387,1.024-.907.932-.363-.063-.747-.118-1.075-.161a2.275,2.275,0,0,1-1.466-1.308l-2.344-4.579a2.661,2.661,0,0,0-1.839-1.583v-.012h-4.755a1.813,1.813,0,0,0-1.519.823l-3.211,4.927s4.126-1.95,4.726-.777l2.322,4.534a2.259,2.259,0,0,1,.176,2q-.249.444-.464.929c-.226.512-.736.634-1.31.259l-3.462-2.264a1.39,1.39,0,0,0-.841-.261v-.006h-1.741a3.175,3.175,0,0,0-3.121,2.6l-.113.61,3.955,1.985-.109,2.713a3.8,3.8,0,0,0,1.543,3l3.488,2.281a3.147,3.147,0,0,1,1.2,1.824c.125.518.268,1.073.393,1.551.2.749.056,1.376-.353,1.587l-2.592,1.341c-.663.343-.713,1.572-.111,2.743l8.651,7.554c.424-.219,1.038.077,1.548.7q.462.564.937,1.1a3.232,3.232,0,0,1,.846,2.111l-.17,4.147a3.8,3.8,0,0,0,1.542,3l2.248,1.473.261,5.222,4.12-2.756V619.5a1.2,1.2,0,0,0,.708-1.117l.171-4.174c.027-.658.385-1.025.9-.935.362.062.746.116,1.074.158a2.268,2.268,0,0,1,1.466,1.306l1.243,2.423h-1.792V620.9l4.8,0v-.009c.136,0,.42.353.538.292l4.031-2.528c.664-.342.714-1.57.113-2.742l-2.326-4.532a2.268,2.268,0,0,1-.179-2.006q.239-.423.443-.884c.228-.511.739-.632,1.312-.256l.01.007.533,5.053a40.544,40.544,0,0,0,3.845-2.528h0a1.711,1.711,0,0,0,.771-1.136l.281-6.745A3.807,3.807,0,0,0,827.258,599.883ZM810.9,603.592c-3.532-.438-7.688-4.621-9.66-9.753-2.647-6.888-.7-12.54,3.95-11.963,3.532.438,7.687,4.62,9.66,9.753C817.5,598.516,815.549,604.169,810.9,603.592Z" style="fill:#08233e"/><path d="M817.468,595.87l3.282-1.687c.664-.341.716-1.568.115-2.741l-3.786-7.386c-.6-1.172-1.627-1.845-2.292-1.5l-2.569,1.32c-.425.219-1.039-.079-1.548-.7q-.462-.567-.937-1.1a3.229,3.229,0,0,1-.844-2.112l.175-4.139a3.788,3.788,0,0,0-1.538-3l-5.637-3.7c-.895-.588-1.657-.2-1.7.873l-.176,4.169c-.028.657-.387,1.024-.907.933-.362-.064-.747-.119-1.075-.161a2.273,2.273,0,0,1-1.465-1.309l-2.345-4.579c-.6-1.172-1.626-1.847-2.291-1.506l-4.19,2.145c-.665.34-.717,1.567-.117,2.74l2.322,4.534a2.257,2.257,0,0,1,.176,2q-.249.446-.464.929c-.226.513-.736.635-1.31.26l-3.462-2.265c-.895-.585-1.655-.191-1.7.881l-.272,6.751a3.79,3.79,0,0,0,1.543,3l3.488,2.282a3.147,3.147,0,0,1,1.2,1.824c.125.517.268,1.073.393,1.55.2.749.056,1.376-.353,1.587l-2.591,1.341c-.664.344-.714,1.572-.112,2.744l3.793,7.382c.6,1.172,1.628,1.844,2.292,1.5l2.566-1.328c.424-.219,1.038.077,1.548.7q.462.564.937,1.1a3.228,3.228,0,0,1,.846,2.11l-.169,4.143a3.79,3.79,0,0,0,1.541,3l5.638,3.693c.894.586,1.655.193,1.7-.878l.171-4.175c.027-.657.385-1.025.9-.935.362.063.746.117,1.074.158a2.273,2.273,0,0,1,1.466,1.307l2.349,4.578c.6,1.172,1.628,1.844,2.292,1.5l4.183-2.157c.664-.343.714-1.571.113-2.743l-2.326-4.532a2.262,2.262,0,0,1-.178-2q.237-.425.442-.885c.228-.511.739-.632,1.312-.255l3.461,2.27c.895.587,1.656.195,1.7-.875l.281-6.746a3.79,3.79,0,0,0-1.54-3l-3.487-2.288a3.155,3.155,0,0,1-1.2-1.825C817.893,597.411,817.494,595.955,817.468,595.87Zm-20.609.851c-2.647-6.888-.7-12.541,3.95-11.964,3.532.439,7.687,4.621,9.66,9.753,2.647,6.888.7,12.541-3.95,11.964C802.987,606.035,798.831,601.853,796.859,596.721Z" style="fill:#0c3157"/><path d="M270.76,590.306q-.622-17.727-8.508-31.04a103.785,103.785,0,0,0-21.722-25.287Q226.691,522,222.8,516.572a20.184,20.184,0,0,1-4.1-11.18q-.2-5.754,2.765-7.582c1.982-1.216,12.316,24.557,15.887,26.476,8.887,4.78,5.4-2.957,18.738,1.5l10.1-15.664a115.909,115.909,0,0,0-17.218-21.846,85.621,85.621,0,0,0-19.4-14.877q-14.706-7.912-24.171-3.012c-.342.177-.7.385-1.063.617l-23.3,13.515.143,12.462,7.775-1.414a22.61,22.61,0,0,0-.165,3.572c.44,12.516,2.777,25.378,8.159,34.012s15.35,15.274,26.657,24.934c7.138,6.185,8.421,7.655,10.888,11.263s5.493,6.926,5.631,10.888,2.456,6.138.294,7.258,0,0-3.939-2.12c-8.8-4.731-12.8-6.928-23.588-24.948l-5.329,2.048,1.976-5.313-24.592,6.758-12.025,14.629,13.529-3.914c13.178,19.73,36.1,28.785,50.532,36.552a47.584,47.584,0,0,0,9.7,4.04l-3.99,2.211-3.369,9.465,21.82-12.494c.321-.17.638-.349.948-.543Q271.385,608.036,270.76,590.306Z" style="fill:#144b82"/><path d="M199.307,510.482q-2.965,1.829-2.765,7.582a20.181,20.181,0,0,0,4.1,11.179q3.9,5.43,17.735,17.407A103.827,103.827,0,0,1,240.1,571.937q7.882,13.309,8.507,31.041t-8.676,23.554q-9.3,5.821-25.107-2.679-22.813-12.276-41.91-45.309l12.025-14.629q16.185,27.029,29.382,34.127,5.907,3.178,9.153,1.5t3.035-7.62a21.2,21.2,0,0,0-3.9-11.354q-3.7-5.412-14.4-14.689-16.96-14.49-25.035-27.439t-8.733-31.719q-.66-18.767,8.81-23.668t24.17,3.011a85.675,85.675,0,0,1,19.4,14.877,116,116,0,0,1,17.218,21.847l-10.1,15.664q-12.963-19.744-26.3-26.916Q202.278,508.658,199.307,510.482Z" style="fill:#08233e"/><polygon points="233.932 538.454 256.084 525.782 266.184 510.118 244.033 522.79 233.932 538.454" style="fill:#144b82"/><polygon points="271.193 625.388 295.997 610.922 357.984 647.346 333.029 661.089 271.193 625.388" style="fill:#144b82"/><polygon points="357.984 647.346 357.984 675.778 332.68 690.543 332.339 660.717 357.984 647.346" style="fill:#144b82"/><polygon points="337.327 592.854 337.327 621.286 312.022 636.051 312.076 606.62 337.327 592.854" style="fill:#144b82"/><polygon points="276.293 586.392 275.048 556.454 337.035 592.877 312.08 606.621 276.293 586.392" style="fill:#144b82"/><polygon points="270.852 538.314 332.688 574.016 332.339 603.469 291.464 579.467 291.464 594.921 312.076 606.62 312.076 635.996 291.464 624.095 291.464 637.118 332.339 660.717 332.688 690.543 270.852 654.841 270.852 538.314" style="fill:#08233e"/><polygon points="270.852 538.314 295.656 523.849 357.644 560.272 332.688 574.016 270.852 538.314" style="fill:#144b82"/><polygon points="357.644 560.272 357.644 588.704 332.339 603.469 332.688 574.016 357.644 560.272" style="fill:#144b82"/><path d="M452.232,680.015q-.918-26.166-14.662-50.814c-9.161-16.432-19.215-27.4-32.009-34.286q-17.233-9.268-29.069-1.7l-.027-.05-21.209,10.878,9.279,2.909c-2.42,6.473-10.378,16.107-10.037,25.8.614,17.447-.151,35.757,9.01,52.187s22.375,31.664,35.167,38.546c5.95,3.2,17.6-.006,22.59.188l-5.079,7.435,20.582-11.716-.01-.014a23.859,23.859,0,0,0,3.89-2.66Q453.152,706.182,452.232,680.015Zm-45.9,13.823q-10.833-5.829-18.651-20.952a72.454,72.454,0,0,1-8.379-31.014c-.373-10.591,3.663-18.294,8.352-23.106s2.927-.421,10.149,3.464,9.8,11.76,15.018,21.9,9.015,15.942,9.387,26.532,8.56,17.114,3.871,21.869S413.551,697.722,406.328,693.838Z" style="fill:#144b82"/><path d="M419.3,728.865q-12.5,10.529-31.691.206T354.675,694.1q-13.743-24.646-14.661-50.815T351.6,606.594q12.5-10.53,31.693-.206t32.93,34.969Q429.958,666,430.881,692.172T419.3,728.865Zm-10.365-48.426a66.534,66.534,0,0,0-7.64-28.349q-7.132-13.869-17.008-19.181T368,634.177q-6.412,6.58-5.9,21.065a66.058,66.058,0,0,0,7.639,28.275q7.129,13.791,17,19.1t16.291-1.19Q409.44,694.926,408.931,680.439Z" style="fill:#08233e"/><polygon points="651.034 737.495 651.033 784.806 692.006 808.461 692.006 761.151 651.034 737.495" style="fill:#001a33"/><polygon points="732.978 737.495 732.978 784.806 692.006 808.461 692.006 761.151 732.978 737.495" style="fill:#08233e"/><polygon points="692.006 761.151 732.978 737.495 692.006 713.841 651.034 737.495 692.006 761.151" style="fill:#0c3157"/><polygon points="677.868 796.524 677.868 825.759 703.187 840.376 703.187 811.141 677.868 796.524" style="fill:#001a33"/><polygon points="728.505 796.524 728.505 825.759 703.187 840.376 703.187 811.141 728.505 796.524" style="fill:#08233e"/><polygon points="703.187 811.141 728.505 796.524 703.187 781.906 677.868 796.524 703.187 811.141" style="fill:#0c3157"/><polygon points="611.992 792.708 611.992 821.943 637.311 836.56 637.311 807.325 611.992 792.708" style="fill:#001a33"/><polygon points="662.629 792.708 662.629 821.943 637.311 836.56 637.311 807.325 662.629 792.708" style="fill:#08233e"/><polygon points="637.311 807.325 662.629 792.708 637.311 778.09 611.992 792.708 637.311 807.325" style="fill:#0c3157"/><polygon points="637.311 804.038 656.159 793.156 637.311 782.274 618.462 793.156 637.311 804.038" style="fill:#293340;opacity:0.11"/><polygon points="620.357 769.563 620.356 789.14 637.311 798.928 637.311 779.351 620.357 769.563" style="fill:#001a33"/><polygon points="654.265 769.563 654.265 789.14 637.311 798.928 637.311 779.351 654.265 769.563" style="fill:#08233e"/><polygon points="637.311 779.351 654.265 769.563 637.311 759.774 620.357 769.563 637.311 779.351" style="fill:#0c3157"/><polygon points="86.668 241.536 167.74 138.793 120.522 111.307 39.451 214.051 86.668 241.536" style="fill:#0c3157"/><polygon points="231.863 158.594 167.74 138.793 120.522 111.307 184.646 131.109 231.863 158.594" style="fill:#001a33"/><polygon points="258.897 23.954 258.897 31.527 271.276 38.733 271.276 31.16 258.897 23.954" style="fill:#64748b"/><polygon points="184.646 131.109 271.276 31.16 258.897 23.954 318.493 12.176 333.984 67.662 318.493 58.645 231.863 158.594 184.646 131.109" style="fill:#0c3157"/><polygon points="231.863 166.168 167.74 146.366 167.74 138.793 231.863 158.594 231.863 166.168" style="fill:#08233e"/><polygon points="86.668 241.536 86.668 249.109 167.74 146.366 167.74 138.793 86.668 241.536" style="fill:#001a33"/><polygon points="318.493 58.645 318.493 66.218 231.863 166.168 231.863 158.594 318.493 58.645" style="fill:#001a33"/><polygon points="333.984 67.662 333.984 75.236 318.493 66.218 318.493 58.645 333.984 67.662" style="fill:#001a33"/><polygon points="39.451 214.051 39.451 221.624 86.668 249.109 86.668 241.536 39.451 214.051" style="fill:#08233e"/><path d="M269.706,162.449v23.577c1.178-.068,2.329-.188,3.461-.34V162.449Z" style="fill:#9dccf5"/><path d="M264.942,162.449v23.6c.67.028,1.339.061,2.022.061.327,0,.645-.023.969-.03v-23.63Z" style="fill:#9dccf5"/><path d="M238.7,162.449v6.7a11.307,11.307,0,0,0,2.094,6.393V162.449Z" style="fill:#9dccf5"/><path d="M274.94,162.449v22.963q1.784-.314,3.461-.762v-22.2Z" style="fill:#9dccf5"/><path d="M280.174,162.449v21.689c.876-.279,1.729-.579,2.547-.909v-20.78Z" style="fill:#9dccf5"/><path d="M246.886,162.449v18.633a28.743,28.743,0,0,0,2.548,1.356V162.449Z" style="fill:#9dccf5"/><path d="M260.179,162.449V185.6q1.469.218,2.99.342V162.449Z" style="fill:#9dccf5"/><path d="M251.206,162.449v20.78c.818.33,1.672.63,2.548.909V162.449Z" style="fill:#9dccf5"/><path d="M255.526,162.449v22.2c.937.249,1.893.475,2.881.663V162.449Z" style="fill:#9dccf5"/><path d="M242.565,162.449v15.235a20.192,20.192,0,0,0,2.548,2.222V162.449Z" style="fill:#9dccf5"/><path d="M295.229,162.449h-2.095v13.1a11.3,11.3,0,0,0,2.095-6.393Z" style="fill:#9dccf5"/><path d="M288.814,162.449v17.457a20.122,20.122,0,0,0,2.548-2.222V162.449Z" style="fill:#9dccf5"/><path d="M284.494,162.449v19.989c.892-.424,1.748-.872,2.548-1.356V162.449Z" style="fill:#9dccf5"/><path d="M240.793,162.449v13.1a15.92,15.92,0,0,0,1.772,2.14V162.449Z" style="fill:#4c97d9"/><path d="M245.113,162.449v17.457c.56.408,1.153.8,1.773,1.176V162.449Z" style="fill:#4c97d9"/><path d="M249.434,162.449v19.989c.576.274,1.16.544,1.772.791v-20.78Z" style="fill:#4c97d9"/><path d="M253.754,162.449v21.689c.578.184,1.171.352,1.772.512v-22.2Z" style="fill:#4c97d9"/><path d="M258.407,162.449v22.864c.579.11,1.176.2,1.772.283V162.449Z" style="fill:#4c97d9"/><path d="M263.169,162.449v23.489q.879.072,1.773.11v-23.6Z" style="fill:#4c97d9"/><path d="M267.933,162.449v23.63c.593-.012,1.189-.02,1.773-.053V162.449Z" style="fill:#4c97d9"/><path d="M273.167,162.449v23.237c.6-.081,1.19-.171,1.773-.274V162.449Z" style="fill:#4c97d9"/><path d="M291.362,162.449v15.235a15.845,15.845,0,0,0,1.772-2.14V162.449Z" style="fill:#4c97d9"/><path d="M287.042,162.449v18.633c.62-.376,1.213-.768,1.772-1.176V162.449Z" style="fill:#4c97d9"/><path d="M282.721,162.449v20.78c.612-.247,1.2-.517,1.773-.791V162.449Z" style="fill:#4c97d9"/><path d="M278.4,162.449v22.2c.6-.16,1.195-.328,1.773-.512V162.449Z" style="fill:#4c97d9"/><path d="M266.964,145.492c-15.61,0-28.265,7.592-28.265,16.957s12.655,16.957,28.265,16.957,28.265-7.592,28.265-16.957S282.574,145.492,266.964,145.492Z" style="fill:#c5e1fa"/><path d="M266.964,148.872c13.134,0,23.838,6.168,24.579,13.936.028-.284.072-.565.072-.853,0-8.169-11.037-14.79-24.651-14.79s-24.652,6.621-24.652,14.79c0,.288.045.569.072.853C243.126,155.04,253.83,148.872,266.964,148.872Z" style="fill:#4c97d9"/><path d="M266.964,176.744c13.134,0,23.838-6.168,24.579-13.936-.741-7.768-11.445-13.936-24.579-13.936s-23.838,6.168-24.58,13.936C243.126,170.576,253.83,176.744,266.964,176.744Z" style="fill:#4c97d9;opacity:0.5"/><path d="M282.818,170.834A24.341,24.341,0,0,0,280,168.046a5.572,5.572,0,0,0,.5-5.221c-1.29-3.366-5.421-3.7-8.477-3.387a21.191,21.191,0,0,0-4.209.945c-2.926-1.629-5.756-3.679-8.783-5.185a16.254,16.254,0,0,1,6.045-.956.4.4,0,0,0,.106-.786,10.816,10.816,0,0,0-8.064.884,16.921,16.921,0,0,0-4.012-1.076c-.194-.026-.247.267-.1.354.921.53,1.832,1.076,2.747,1.614-2.446,2.048-3.5,5.276.138,7.794,3.472,2.405,7.734.808,11.24-.316q.468-.15.94-.3c2.993,1.709,5.779,3.905,8.654,5.881a12.816,12.816,0,0,1-4.955,1.975,15.758,15.758,0,0,1-6.695-.122.484.484,0,0,0-.467.8c2.645,2.561,9.156,1.892,13.08-.66a8.954,8.954,0,0,0,.969-.725,30.929,30.929,0,0,0,3.61,1.976A.452.452,0,0,0,282.818,170.834Zm-23.832-8.752c-3.358-.586-4.123-3.322-2.026-5.49a5.725,5.725,0,0,1,.457-.386q4.151,2.453,8.331,4.853c-.439.148-.876.3-1.321.439A20.411,20.411,0,0,1,258.986,162.082Zm13.791-.644c2.431-.1,7.262.125,5.4,5.153l0,.007a69.1,69.1,0,0,0-7.805-4.808A13.455,13.455,0,0,1,272.777,161.438Z" style="fill:#4c97d9"/><path d="M247.077,166.558a14.563,14.563,0,0,1-1.208-2.411c-.246-.809-.012-1.71-.32-2.469a.36.36,0,0,0-.595-.156c-.707.727-.494,2.044-.269,2.952a3.774,3.774,0,0,0,1.858,2.618A.393.393,0,0,0,247.077,166.558Z" style="fill:#4c97d9"/><path d="M287.643,157.877a.2.2,0,0,0-.332.138,18,18,0,0,1,.123,2.876c-.144.836-.733,1.53-.743,2.374a.392.392,0,0,0,.492.375C289.005,162.9,289.072,159.03,287.643,157.877Z" style="fill:#4c97d9"/><path d="M282.564,156.507a.188.188,0,0,0-.131.316,24.471,24.471,0,0,0,1.83,1.655c.513.526.823,1.042,1.545,1.279a.3.3,0,0,0,.38-.29C286.28,157.947,283.961,156.411,282.564,156.507Z" style="fill:#4c97d9"/><path d="M269.706,153.151v23.577c1.178-.068,2.329-.188,3.461-.34V153.151Z" style="fill:#9dccf5"/><path d="M264.942,153.151v23.6c.67.03,1.339.062,2.022.062.327,0,.645-.023.969-.029V153.151Z" style="fill:#9dccf5"/><path d="M238.7,153.151v6.7a11.307,11.307,0,0,0,2.094,6.392V153.151Z" style="fill:#9dccf5"/><path d="M274.94,153.151v22.964q1.784-.315,3.461-.763v-22.2Z" style="fill:#9dccf5"/><path d="M280.174,153.151V174.84c.876-.279,1.729-.578,2.547-.908V153.151Z" style="fill:#9dccf5"/><path d="M246.886,153.151v18.633a28.743,28.743,0,0,0,2.548,1.356V153.151Z" style="fill:#9dccf5"/><path d="M260.179,153.151V176.3c.979.144,1.975.26,2.99.342v-23.49Z" style="fill:#9dccf5"/><path d="M251.206,153.151v20.781c.818.33,1.672.63,2.548.908V153.151Z" style="fill:#9dccf5"/><path d="M255.526,153.151v22.2c.937.249,1.893.475,2.881.663V153.151Z" style="fill:#9dccf5"/><path d="M242.565,153.151v15.235a20.192,20.192,0,0,0,2.548,2.222V153.151Z" style="fill:#9dccf5"/><path d="M295.229,153.151h-2.095v13.1a11.3,11.3,0,0,0,2.095-6.392Z" style="fill:#9dccf5"/><path d="M288.814,153.151v17.457a20.122,20.122,0,0,0,2.548-2.222V153.151Z" style="fill:#9dccf5"/><path d="M284.494,153.151V173.14c.892-.424,1.748-.872,2.548-1.356V153.151Z" style="fill:#9dccf5"/><path d="M240.793,153.151v13.1a15.92,15.92,0,0,0,1.772,2.14V153.151Z" style="fill:#4c97d9"/><path d="M245.113,153.151v17.457c.56.409,1.153.8,1.773,1.176V153.151Z" style="fill:#4c97d9"/><path d="M249.434,153.151V173.14c.576.274,1.16.544,1.772.792V153.151Z" style="fill:#4c97d9"/><path d="M253.754,153.151V174.84c.578.184,1.171.352,1.772.512v-22.2Z" style="fill:#4c97d9"/><path d="M258.407,153.151v22.864c.579.11,1.176.2,1.772.284V153.151Z" style="fill:#4c97d9"/><path d="M263.169,153.151v23.49q.879.071,1.773.108v-23.6Z" style="fill:#4c97d9"/><path d="M267.933,153.151v23.631c.593-.013,1.189-.021,1.773-.054V153.151Z" style="fill:#4c97d9"/><path d="M273.167,153.151v23.237q.9-.12,1.773-.273V153.151Z" style="fill:#4c97d9"/><path d="M291.362,153.151v15.235a15.845,15.845,0,0,0,1.772-2.14V153.151Z" style="fill:#4c97d9"/><path d="M287.042,153.151v18.633c.62-.376,1.213-.767,1.772-1.176V153.151Z" style="fill:#4c97d9"/><path d="M282.721,153.151v20.781c.612-.248,1.2-.518,1.773-.792V153.151Z" style="fill:#4c97d9"/><path d="M278.4,153.151v22.2c.6-.16,1.195-.328,1.773-.512V153.151Z" style="fill:#4c97d9"/><path d="M266.964,136.194c-15.61,0-28.265,7.592-28.265,16.957s12.655,16.957,28.265,16.957,28.265-7.591,28.265-16.957S282.574,136.194,266.964,136.194Z" style="fill:#c5e1fa"/><path d="M266.964,139.575c13.134,0,23.838,6.167,24.579,13.935.028-.284.072-.565.072-.853,0-8.168-11.037-14.79-24.651-14.79s-24.652,6.622-24.652,14.79c0,.288.045.569.072.853C243.126,145.742,253.83,139.575,266.964,139.575Z" style="fill:#4c97d9"/><path d="M266.964,167.446c13.134,0,23.838-6.168,24.579-13.936-.741-7.768-11.445-13.935-24.579-13.935s-23.838,6.167-24.58,13.935C243.126,161.278,253.83,167.446,266.964,167.446Z" style="fill:#4c97d9;opacity:0.5"/><path d="M282.818,161.536A24.253,24.253,0,0,0,280,158.749a5.575,5.575,0,0,0,.5-5.222c-1.29-3.366-5.421-3.7-8.477-3.387a21.192,21.192,0,0,0-4.209.946c-2.926-1.629-5.756-3.68-8.783-5.186a16.274,16.274,0,0,1,6.045-.956.4.4,0,0,0,.106-.785,10.81,10.81,0,0,0-8.064.883,16.872,16.872,0,0,0-4.012-1.075c-.194-.026-.247.266-.1.353.921.53,1.832,1.077,2.747,1.614-2.446,2.048-3.5,5.276.138,7.8,3.472,2.4,7.734.807,11.24-.316q.468-.15.94-.3c2.993,1.708,5.779,3.905,8.654,5.88a12.818,12.818,0,0,1-4.955,1.976,15.79,15.79,0,0,1-6.695-.123.484.484,0,0,0-.467.8c2.645,2.561,9.156,1.893,13.08-.659a9.093,9.093,0,0,0,.969-.726,30.929,30.929,0,0,0,3.61,1.976A.452.452,0,0,0,282.818,161.536Zm-23.832-8.752c-3.358-.586-4.123-3.322-2.026-5.49a5.725,5.725,0,0,1,.457-.386q4.151,2.454,8.331,4.853c-.439.148-.876.3-1.321.44A20.414,20.414,0,0,1,258.986,152.784Zm13.791-.644c2.431-.1,7.262.125,5.4,5.153l0,.007a68.953,68.953,0,0,0-7.805-4.808A13.546,13.546,0,0,1,272.777,152.14Z" style="fill:#4c97d9"/><path d="M247.077,157.261a14.642,14.642,0,0,1-1.208-2.411c-.246-.81-.012-1.71-.32-2.47a.361.361,0,0,0-.595-.156c-.707.728-.494,2.045-.269,2.952a3.778,3.778,0,0,0,1.858,2.619A.394.394,0,0,0,247.077,157.261Z" style="fill:#4c97d9"/><path d="M287.643,148.579a.2.2,0,0,0-.332.138,18.013,18.013,0,0,1,.123,2.876c-.144.836-.733,1.531-.743,2.374a.391.391,0,0,0,.492.375C289.005,153.6,289.072,149.733,287.643,148.579Z" style="fill:#4c97d9"/><path d="M282.564,147.209a.188.188,0,0,0-.131.317,24.459,24.459,0,0,0,1.83,1.654c.513.526.823,1.042,1.545,1.279a.3.3,0,0,0,.38-.29C286.28,148.649,283.961,147.114,282.564,147.209Z" style="fill:#4c97d9"/><path d="M269.706,143.786v23.577c1.178-.068,2.329-.188,3.461-.34V143.786Z" style="fill:#9dccf5"/><path d="M264.942,143.786v23.6c.67.028,1.339.061,2.022.061.327,0,.645-.023.969-.03v-23.63Z" style="fill:#9dccf5"/><path d="M238.7,143.786v6.7a11.307,11.307,0,0,0,2.094,6.393V143.786Z" style="fill:#9dccf5"/><path d="M274.94,143.786V166.75q1.784-.315,3.461-.763v-22.2Z" style="fill:#9dccf5"/><path d="M280.174,143.786v21.689c.876-.279,1.729-.578,2.547-.909v-20.78Z" style="fill:#9dccf5"/><path d="M246.886,143.786v18.633a28.743,28.743,0,0,0,2.548,1.356V143.786Z" style="fill:#9dccf5"/><path d="M260.179,143.786v23.148c.979.144,1.975.26,2.99.341V143.786Z" style="fill:#9dccf5"/><path d="M251.206,143.786v20.78c.818.331,1.672.63,2.548.909V143.786Z" style="fill:#9dccf5"/><path d="M255.526,143.786v22.2c.937.25,1.893.475,2.881.663V143.786Z" style="fill:#9dccf5"/><path d="M242.565,143.786v15.235a20.113,20.113,0,0,0,2.548,2.222V143.786Z" style="fill:#9dccf5"/><path d="M295.229,143.786h-2.095v13.1a11.3,11.3,0,0,0,2.095-6.393Z" style="fill:#9dccf5"/><path d="M288.814,143.786v17.457a20.043,20.043,0,0,0,2.548-2.222V143.786Z" style="fill:#9dccf5"/><path d="M284.494,143.786v19.989c.892-.424,1.748-.872,2.548-1.356V143.786Z" style="fill:#9dccf5"/><path d="M240.793,143.786v13.1a15.92,15.92,0,0,0,1.772,2.14V143.786Z" style="fill:#4c97d9"/><path d="M245.113,143.786v17.457c.56.408,1.153.8,1.773,1.176V143.786Z" style="fill:#4c97d9"/><path d="M249.434,143.786v19.989c.576.274,1.16.544,1.772.791v-20.78Z" style="fill:#4c97d9"/><path d="M253.754,143.786v21.689c.578.184,1.171.353,1.772.512v-22.2Z" style="fill:#4c97d9"/><path d="M258.407,143.786V166.65c.579.111,1.176.195,1.772.284V143.786Z" style="fill:#4c97d9"/><path d="M263.169,143.786v23.489q.879.072,1.773.11v-23.6Z" style="fill:#4c97d9"/><path d="M267.933,143.786v23.63c.593-.011,1.189-.019,1.773-.053V143.786Z" style="fill:#4c97d9"/><path d="M273.167,143.786v23.237q.9-.12,1.773-.273V143.786Z" style="fill:#4c97d9"/><path d="M291.362,143.786v15.235a15.845,15.845,0,0,0,1.772-2.14V143.786Z" style="fill:#4c97d9"/><path d="M287.042,143.786v18.633c.62-.376,1.213-.768,1.772-1.176V143.786Z" style="fill:#4c97d9"/><path d="M282.721,143.786v20.78c.612-.247,1.2-.517,1.773-.791V143.786Z" style="fill:#4c97d9"/><path d="M278.4,143.786v22.2c.6-.159,1.195-.328,1.773-.512V143.786Z" style="fill:#4c97d9"/><path d="M266.964,126.829c-15.61,0-28.265,7.592-28.265,16.957s12.655,16.957,28.265,16.957,28.265-7.592,28.265-16.957S282.574,126.829,266.964,126.829Z" style="fill:#c5e1fa"/><path d="M266.964,130.209c13.134,0,23.838,6.168,24.579,13.936.028-.284.072-.565.072-.853,0-8.168-11.037-14.79-24.651-14.79s-24.652,6.622-24.652,14.79c0,.288.045.569.072.853C243.126,136.377,253.83,130.209,266.964,130.209Z" style="fill:#4c97d9"/><path d="M266.964,158.081c13.134,0,23.838-6.168,24.579-13.936-.741-7.768-11.445-13.936-24.579-13.936s-23.838,6.168-24.58,13.936C243.126,151.913,253.83,158.081,266.964,158.081Z" style="fill:#4c97d9;opacity:0.5"/><path d="M282.818,152.171A24.341,24.341,0,0,0,280,149.383a5.572,5.572,0,0,0,.5-5.221c-1.29-3.366-5.421-3.7-8.477-3.387a21.191,21.191,0,0,0-4.209.945c-2.926-1.629-5.756-3.679-8.783-5.185a16.254,16.254,0,0,1,6.045-.956.4.4,0,0,0,.106-.785,10.81,10.81,0,0,0-8.064.883,16.921,16.921,0,0,0-4.012-1.076c-.194-.025-.247.267-.1.354.921.53,1.832,1.077,2.747,1.614-2.446,2.048-3.5,5.276.138,7.8,3.472,2.405,7.734.807,11.24-.317l.94-.3c2.993,1.709,5.779,3.906,8.654,5.881a12.818,12.818,0,0,1-4.955,1.976,15.79,15.79,0,0,1-6.695-.122.483.483,0,0,0-.467.8c2.645,2.561,9.156,1.892,13.08-.659a9.093,9.093,0,0,0,.969-.726,30.929,30.929,0,0,0,3.61,1.976A.452.452,0,0,0,282.818,152.171Zm-23.832-8.752c-3.358-.586-4.123-3.322-2.026-5.49a5.725,5.725,0,0,1,.457-.386q4.151,2.452,8.331,4.853c-.439.148-.876.3-1.321.44A20.455,20.455,0,0,1,258.986,143.419Zm13.791-.644c2.431-.1,7.262.125,5.4,5.153l0,.007a69.1,69.1,0,0,0-7.805-4.808A13.546,13.546,0,0,1,272.777,142.775Z" style="fill:#4c97d9"/><path d="M247.077,147.9a14.642,14.642,0,0,1-1.208-2.411c-.246-.81-.012-1.71-.32-2.469a.361.361,0,0,0-.595-.157c-.707.728-.494,2.045-.269,2.952a3.776,3.776,0,0,0,1.858,2.619A.394.394,0,0,0,247.077,147.9Z" style="fill:#4c97d9"/><path d="M287.643,139.214a.2.2,0,0,0-.332.138,18.008,18.008,0,0,1,.123,2.876c-.144.837-.733,1.53-.743,2.374a.392.392,0,0,0,.492.375C289.005,144.236,289.072,140.368,287.643,139.214Z" style="fill:#4c97d9"/><path d="M282.564,137.844a.188.188,0,0,0-.131.316,24.254,24.254,0,0,0,1.83,1.655c.513.526.823,1.042,1.545,1.279a.3.3,0,0,0,.38-.29C286.28,139.284,283.961,137.749,282.564,137.844Z" style="fill:#4c97d9"/><path d="M271.436,128.2v23.576c1.179-.068,2.33-.187,3.462-.34V128.2Z" style="fill:#9dccf5"/><path d="M266.673,128.2v23.6c.67.028,1.339.061,2.021.061.327,0,.645-.023.97-.029V128.2Z" style="fill:#9dccf5"/><path d="M240.429,128.2v6.7a11.308,11.308,0,0,0,2.095,6.392V128.2Z" style="fill:#9dccf5"/><path d="M276.67,128.2v22.963q1.785-.314,3.462-.762V128.2Z" style="fill:#9dccf5"/><path d="M281.9,128.2v21.688c.877-.278,1.73-.578,2.548-.909V128.2Z" style="fill:#9dccf5"/><path d="M248.617,128.2v18.632c.8.484,1.656.932,2.547,1.356V128.2Z" style="fill:#9dccf5"/><path d="M261.91,128.2v23.147q1.467.218,2.991.342V128.2Z" style="fill:#9dccf5"/><path d="M252.937,128.2v20.779c.818.331,1.672.631,2.548.909V128.2Z" style="fill:#9dccf5"/><path d="M257.257,128.2v22.2c.936.249,1.893.474,2.88.662V128.2Z" style="fill:#9dccf5"/><path d="M244.3,128.2V143.43a19.964,19.964,0,0,0,2.547,2.222V128.2Z" style="fill:#9dccf5"/><path d="M296.959,128.2h-2.093V141.29a11.313,11.313,0,0,0,2.093-6.392Z" style="fill:#9dccf5"/><path d="M290.545,128.2v17.456a20.043,20.043,0,0,0,2.548-2.222V128.2Z" style="fill:#9dccf5"/><path d="M286.225,128.2v19.988c.891-.424,1.748-.872,2.548-1.356V128.2Z" style="fill:#9dccf5"/><path d="M242.524,128.2V141.29a15.718,15.718,0,0,0,1.773,2.14V128.2Z" style="fill:#4c97d9"/><path d="M246.844,128.2v17.456c.56.409,1.153.8,1.773,1.176V128.2Z" style="fill:#4c97d9"/><path d="M251.164,128.2v19.988c.577.275,1.161.545,1.773.791V128.2Z" style="fill:#4c97d9"/><path d="M255.485,128.2v21.688c.578.184,1.171.353,1.772.513V128.2Z" style="fill:#4c97d9"/><path d="M260.137,128.2v22.863c.58.111,1.177.2,1.773.284V128.2Z" style="fill:#4c97d9"/><path d="M264.9,128.2v23.489q.877.07,1.772.109V128.2Z" style="fill:#4c97d9"/><path d="M269.664,128.2v23.63c.593-.012,1.189-.02,1.772-.054V128.2Z" style="fill:#4c97d9"/><path d="M274.9,128.2v23.236c.6-.08,1.19-.17,1.772-.273V128.2Z" style="fill:#4c97d9"/><path d="M293.093,128.2V143.43a15.867,15.867,0,0,0,1.773-2.14V128.2Z" style="fill:#4c97d9"/><path d="M288.773,128.2v18.632c.619-.376,1.212-.767,1.772-1.176V128.2Z" style="fill:#4c97d9"/><path d="M284.452,128.2v20.779c.613-.246,1.2-.516,1.773-.791V128.2Z" style="fill:#4c97d9"/><path d="M280.132,128.2v22.2c.6-.16,1.195-.329,1.772-.513V128.2Z" style="fill:#4c97d9"/><path d="M268.694,111.238c-15.609,0-28.265,7.592-28.265,16.958s12.656,16.957,28.265,16.957,28.265-7.592,28.265-16.957S284.305,111.238,268.694,111.238Z" style="fill:#c5e1fa"/><path d="M268.694,114.618c13.135,0,23.839,6.168,24.58,13.936.027-.283.072-.565.072-.853,0-8.168-11.037-14.79-24.652-14.79s-24.651,6.622-24.651,14.79c0,.288.045.57.072.853C244.856,120.786,255.561,114.618,268.694,114.618Z" style="fill:#4c97d9"/><path d="M268.694,142.49c13.135,0,23.839-6.167,24.58-13.936-.741-7.768-11.445-13.936-24.58-13.936s-23.838,6.168-24.579,13.936C244.856,136.323,255.561,142.49,268.694,142.49Z" style="fill:#4c97d9;opacity:0.5"/><path d="M284.549,136.581a24.113,24.113,0,0,0-2.819-2.788,5.57,5.57,0,0,0,.5-5.221c-1.29-3.366-5.421-3.7-8.477-3.387a21.144,21.144,0,0,0-4.21.944c-2.925-1.628-5.755-3.679-8.782-5.185a16.3,16.3,0,0,1,6.045-.956.4.4,0,0,0,.106-.785,10.815,10.815,0,0,0-8.064.883,16.908,16.908,0,0,0-4.012-1.076c-.195-.025-.247.267-.1.354.92.53,1.831,1.077,2.747,1.614-2.446,2.048-3.5,5.276.138,7.8,3.471,2.405,7.734.807,11.24-.316q.468-.15.94-.3c2.992,1.708,5.779,3.905,8.654,5.88a12.818,12.818,0,0,1-4.955,1.976,15.774,15.774,0,0,1-6.695-.122.483.483,0,0,0-.467.8c2.645,2.562,9.155,1.893,13.081-.659a8.933,8.933,0,0,0,.967-.726,30.862,30.862,0,0,0,3.61,1.976A.452.452,0,0,0,284.549,136.581Zm-23.832-8.753c-3.358-.586-4.123-3.322-2.026-5.489a5.956,5.956,0,0,1,.457-.387q4.149,2.453,8.33,4.853c-.438.148-.875.3-1.32.44A20.373,20.373,0,0,1,260.717,127.828Zm13.791-.643c2.431-.1,7.262.124,5.4,5.153l0,.007a68.9,68.9,0,0,0-7.805-4.808A13.455,13.455,0,0,1,274.508,127.185Z" style="fill:#4c97d9"/><path d="M248.808,132.305a14.642,14.642,0,0,1-1.208-2.411c-.247-.81-.013-1.71-.32-2.469a.361.361,0,0,0-.595-.157c-.707.728-.494,2.045-.269,2.952a3.776,3.776,0,0,0,1.858,2.619A.394.394,0,0,0,248.808,132.305Z" style="fill:#4c97d9"/><path d="M289.374,123.623a.2.2,0,0,0-.332.138,18.133,18.133,0,0,1,.123,2.877c-.144.835-.733,1.529-.743,2.373a.391.391,0,0,0,.492.375C290.736,128.645,290.8,124.777,289.374,123.623Z" style="fill:#4c97d9"/><path d="M284.3,122.253a.189.189,0,0,0-.131.317c.511.642,1.256,1.065,1.83,1.654.513.527.823,1.042,1.545,1.279a.3.3,0,0,0,.38-.29C288.01,123.693,285.692,122.158,284.3,122.253Z" style="fill:#4c97d9"/><path d="M271.436,118.9v23.576c1.179-.068,2.33-.187,3.462-.339V118.9Z" style="fill:#9dccf5"/><path d="M266.673,118.9v23.6c.67.029,1.339.061,2.021.061.327,0,.645-.022.97-.029V118.9Z" style="fill:#9dccf5"/><path d="M240.429,118.9v6.7a11.311,11.311,0,0,0,2.095,6.393V118.9Z" style="fill:#9dccf5"/><path d="M276.67,118.9v22.963q1.785-.315,3.462-.762V118.9Z" style="fill:#9dccf5"/><path d="M281.9,118.9v21.689c.877-.279,1.73-.579,2.548-.909V118.9Z" style="fill:#9dccf5"/><path d="M248.617,118.9V137.53a28.606,28.606,0,0,0,2.547,1.357V118.9Z" style="fill:#9dccf5"/><path d="M261.91,118.9v23.147q1.467.218,2.991.342V118.9Z" style="fill:#9dccf5"/><path d="M252.937,118.9v20.78c.818.33,1.672.63,2.548.909V118.9Z" style="fill:#9dccf5"/><path d="M257.257,118.9v22.2c.936.249,1.893.475,2.88.662V118.9Z" style="fill:#9dccf5"/><path d="M244.3,118.9v15.234a19.964,19.964,0,0,0,2.547,2.222V118.9Z" style="fill:#9dccf5"/><path d="M296.959,118.9h-2.093v13.1a11.316,11.316,0,0,0,2.093-6.393Z" style="fill:#9dccf5"/><path d="M290.545,118.9v17.456a20.043,20.043,0,0,0,2.548-2.222V118.9Z" style="fill:#9dccf5"/><path d="M286.225,118.9v19.989a28.765,28.765,0,0,0,2.548-1.357V118.9Z" style="fill:#9dccf5"/><path d="M242.524,118.9v13.1a15.711,15.711,0,0,0,1.773,2.139V118.9Z" style="fill:#4c97d9"/><path d="M246.844,118.9v17.456c.56.409,1.153.8,1.773,1.176V118.9Z" style="fill:#4c97d9"/><path d="M251.164,118.9v19.989c.577.274,1.161.544,1.773.791V118.9Z" style="fill:#4c97d9"/><path d="M255.485,118.9v21.689c.578.183,1.171.352,1.772.512V118.9Z" style="fill:#4c97d9"/><path d="M260.137,118.9v22.863c.58.111,1.177.2,1.773.284V118.9Z" style="fill:#4c97d9"/><path d="M264.9,118.9v23.489q.877.07,1.772.109V118.9Z" style="fill:#4c97d9"/><path d="M269.664,118.9v23.63c.593-.012,1.189-.02,1.772-.054V118.9Z" style="fill:#4c97d9"/><path d="M274.9,118.9v23.237c.6-.081,1.19-.171,1.772-.274V118.9Z" style="fill:#4c97d9"/><path d="M293.093,118.9v15.234a15.859,15.859,0,0,0,1.773-2.139V118.9Z" style="fill:#4c97d9"/><path d="M288.773,118.9V137.53c.619-.375,1.212-.767,1.772-1.176V118.9Z" style="fill:#4c97d9"/><path d="M284.452,118.9v20.78c.613-.247,1.2-.518,1.773-.791V118.9Z" style="fill:#4c97d9"/><path d="M280.132,118.9v22.2c.6-.16,1.195-.329,1.772-.512V118.9Z" style="fill:#4c97d9"/><path d="M268.694,101.94c-15.609,0-28.265,7.593-28.265,16.958s12.656,16.957,28.265,16.957,28.265-7.592,28.265-16.957S284.305,101.94,268.694,101.94Z" style="fill:#c5e1fa"/><path d="M268.694,105.321c13.135,0,23.839,6.167,24.58,13.936.027-.285.072-.566.072-.854,0-8.168-11.037-14.79-24.652-14.79s-24.651,6.622-24.651,14.79c0,.288.045.569.072.854C244.856,111.488,255.561,105.321,268.694,105.321Z" style="fill:#4c97d9"/><path d="M268.694,133.192c13.135,0,23.839-6.167,24.58-13.935-.741-7.769-11.445-13.936-24.58-13.936s-23.838,6.167-24.579,13.936C244.856,127.025,255.561,133.192,268.694,133.192Z" style="fill:#4c97d9;opacity:0.5"/><path d="M284.549,127.283a24.192,24.192,0,0,0-2.819-2.788,5.57,5.57,0,0,0,.5-5.221c-1.29-3.366-5.421-3.7-8.477-3.387a21.216,21.216,0,0,0-4.21.945c-2.925-1.629-5.755-3.68-8.782-5.185a16.277,16.277,0,0,1,6.045-.957.4.4,0,0,0,.106-.785,10.815,10.815,0,0,0-8.064.883,16.954,16.954,0,0,0-4.012-1.075c-.195-.026-.247.267-.1.354.92.529,1.831,1.076,2.747,1.614-2.446,2.047-3.5,5.276.138,7.794,3.471,2.405,7.734.807,11.24-.316q.468-.15.94-.3c2.992,1.708,5.779,3.905,8.654,5.881a12.832,12.832,0,0,1-4.955,1.975,15.774,15.774,0,0,1-6.695-.122.484.484,0,0,0-.467.8c2.645,2.561,9.155,1.892,13.081-.66a8.927,8.927,0,0,0,.967-.725,30.854,30.854,0,0,0,3.61,1.975A.452.452,0,0,0,284.549,127.283Zm-23.832-8.752c-3.358-.586-4.123-3.322-2.026-5.491a5.929,5.929,0,0,1,.457-.385q4.149,2.453,8.33,4.853c-.438.147-.875.3-1.32.439A20.411,20.411,0,0,1,260.717,118.531Zm13.791-.645c2.431-.1,7.262.125,5.4,5.154l0,.007a68.9,68.9,0,0,0-7.805-4.808A13.548,13.548,0,0,1,274.508,117.886Z" style="fill:#4c97d9"/><path d="M248.808,123.007A14.563,14.563,0,0,1,247.6,120.6c-.247-.809-.013-1.71-.32-2.469a.361.361,0,0,0-.595-.157c-.707.728-.494,2.045-.269,2.953a3.777,3.777,0,0,0,1.858,2.618A.394.394,0,0,0,248.808,123.007Z" style="fill:#4c97d9"/><path d="M289.374,114.326a.2.2,0,0,0-.332.137,18.138,18.138,0,0,1,.123,2.877c-.144.836-.733,1.53-.743,2.373a.391.391,0,0,0,.492.375C290.736,119.347,290.8,115.479,289.374,114.326Z" style="fill:#4c97d9"/><path d="M284.3,112.955a.189.189,0,0,0-.131.317,24.67,24.67,0,0,0,1.83,1.655c.513.526.823,1.042,1.545,1.279a.3.3,0,0,0,.38-.29C288.01,114.4,285.692,112.86,284.3,112.955Z" style="fill:#4c97d9"/><path d="M331.572,191.64v23.577c1.179-.069,2.33-.188,3.462-.34V191.64Z" style="fill:#9dccf5"/><path d="M326.809,191.64v23.6c.67.028,1.339.061,2.021.061.327,0,.645-.023.97-.03V191.64Z" style="fill:#9dccf5"/><path d="M300.566,191.64v6.7a11.307,11.307,0,0,0,2.094,6.392v-13.1Z" style="fill:#9dccf5"/><path d="M336.806,191.64V214.6q1.784-.315,3.462-.763v-22.2Z" style="fill:#9dccf5"/><path d="M342.041,191.64v21.689c.875-.279,1.729-.579,2.547-.909V191.64Z" style="fill:#9dccf5"/><path d="M308.752,191.64v18.632a28.765,28.765,0,0,0,2.548,1.357V191.64Z" style="fill:#9dccf5"/><path d="M322.046,191.64v23.147q1.469.217,2.99.342V191.64Z" style="fill:#9dccf5"/><path d="M313.073,191.64v20.78c.818.33,1.672.63,2.547.909V191.64Z" style="fill:#9dccf5"/><path d="M317.393,191.64v22.2c.936.249,1.893.475,2.88.663V191.64Z" style="fill:#9dccf5"/><path d="M304.432,191.64v15.235a20.043,20.043,0,0,0,2.548,2.222V191.64Z" style="fill:#9dccf5"/><path d="M357.1,191.64H355v13.1a11.307,11.307,0,0,0,2.094-6.392Z" style="fill:#9dccf5"/><path d="M350.681,191.64V209.1a20.113,20.113,0,0,0,2.548-2.222V191.64Z" style="fill:#9dccf5"/><path d="M346.361,191.64v19.989a28.468,28.468,0,0,0,2.547-1.357V191.64Z" style="fill:#9dccf5"/><path d="M302.66,191.64v13.1a15.92,15.92,0,0,0,1.772,2.14V191.64Z" style="fill:#4c97d9"/><path d="M306.98,191.64V209.1c.56.408,1.153.8,1.772,1.175V191.64Z" style="fill:#4c97d9"/><path d="M311.3,191.64v19.989c.577.274,1.161.544,1.773.791V191.64Z" style="fill:#4c97d9"/><path d="M315.62,191.64v21.689c.579.184,1.172.352,1.773.512v-22.2Z" style="fill:#4c97d9"/><path d="M320.273,191.64V214.5c.58.11,1.177.2,1.773.283V191.64Z" style="fill:#4c97d9"/><path d="M325.036,191.64v23.489q.879.072,1.773.11v-23.6Z" style="fill:#4c97d9"/><path d="M329.8,191.64v23.63c.593-.012,1.189-.019,1.772-.053V191.64Z" style="fill:#4c97d9"/><path d="M335.034,191.64v23.237q.9-.12,1.772-.273V191.64Z" style="fill:#4c97d9"/><path d="M353.229,191.64v15.235a15.92,15.92,0,0,0,1.772-2.14v-13.1Z" style="fill:#4c97d9"/><path d="M348.908,191.64v18.632c.62-.375,1.214-.767,1.773-1.175V191.64Z" style="fill:#4c97d9"/><path d="M344.588,191.64v20.78c.612-.247,1.2-.517,1.773-.791V191.64Z" style="fill:#4c97d9"/><path d="M340.268,191.64v22.2c.6-.16,1.194-.328,1.773-.512V191.64Z" style="fill:#4c97d9"/><ellipse cx="328.83" cy="191.64" rx="28.265" ry="16.957" style="fill:#c5e1fa"/><path d="M328.83,178.063c13.135,0,23.839,6.167,24.58,13.936.027-.284.072-.565.072-.854,0-8.168-11.037-14.789-24.652-14.789s-24.651,6.621-24.651,14.789c0,.289.045.57.072.854C304.992,184.23,315.7,178.063,328.83,178.063Z" style="fill:#4c97d9"/><path d="M328.83,205.935c13.135,0,23.839-6.168,24.58-13.936-.741-7.769-11.445-13.936-24.58-13.936S304.992,184.23,304.251,192C304.992,199.767,315.7,205.935,328.83,205.935Z" style="fill:#4c97d9;opacity:0.5"/><path d="M344.685,200.025a24.35,24.35,0,0,0-2.819-2.788,5.57,5.57,0,0,0,.5-5.221c-1.29-3.366-5.421-3.7-8.477-3.387a21.216,21.216,0,0,0-4.21.945c-2.925-1.628-5.755-3.679-8.782-5.185a16.274,16.274,0,0,1,6.045-.956.4.4,0,0,0,.106-.785,10.81,10.81,0,0,0-8.064.883,16.921,16.921,0,0,0-4.012-1.076c-.2-.025-.247.267-.1.354.921.53,1.831,1.076,2.747,1.614-2.446,2.047-3.5,5.276.138,7.795,3.471,2.405,7.734.807,11.24-.316.312-.1.626-.2.94-.3,2.992,1.709,5.779,3.906,8.654,5.881a12.818,12.818,0,0,1-4.955,1.976,15.79,15.79,0,0,1-6.695-.123.484.484,0,0,0-.467.8c2.645,2.561,9.155,1.892,13.081-.659a9.065,9.065,0,0,0,.967-.726,30.706,30.706,0,0,0,3.611,1.975A.452.452,0,0,0,344.685,200.025Zm-23.832-8.752c-3.358-.586-4.123-3.322-2.026-5.49a5.725,5.725,0,0,1,.457-.386q4.15,2.453,8.331,4.853c-.439.148-.877.3-1.321.44A20.455,20.455,0,0,1,320.853,191.273Zm13.791-.644c2.43-.1,7.262.125,5.4,5.153l0,.007a69.042,69.042,0,0,0-7.805-4.808A13.546,13.546,0,0,1,334.644,190.629Z" style="fill:#4c97d9"/><path d="M308.944,195.749a14.593,14.593,0,0,1-1.208-2.41c-.247-.81-.013-1.71-.32-2.47a.361.361,0,0,0-.595-.157c-.708.728-.494,2.045-.269,2.953a3.775,3.775,0,0,0,1.858,2.619A.394.394,0,0,0,308.944,195.749Z" style="fill:#4c97d9"/><path d="M349.51,187.068a.2.2,0,0,0-.332.137,18.143,18.143,0,0,1,.123,2.877c-.144.836-.733,1.53-.743,2.373a.391.391,0,0,0,.492.375C350.872,192.09,350.939,188.221,349.51,187.068Z" style="fill:#4c97d9"/><path d="M344.431,185.7a.188.188,0,0,0-.131.316,24.471,24.471,0,0,0,1.83,1.655c.513.526.823,1.042,1.545,1.279a.3.3,0,0,0,.38-.29C348.146,187.138,345.828,185.6,344.431,185.7Z" style="fill:#4c97d9"/><path d="M319.428,180.256v23.576c1.179-.067,2.33-.187,3.462-.339V180.256Z" style="fill:#9dccf5"/><path d="M314.665,180.256v23.6c.671.029,1.339.061,2.022.061.327,0,.644-.022.969-.029v-23.63Z" style="fill:#9dccf5"/><path d="M288.422,180.256v6.7a11.31,11.31,0,0,0,2.094,6.393V180.256Z" style="fill:#9dccf5"/><path d="M324.662,180.256v22.963q1.785-.315,3.462-.762v-22.2Z" style="fill:#9dccf5"/><path d="M329.9,180.256v21.689c.876-.279,1.729-.579,2.548-.909v-20.78Z" style="fill:#9dccf5"/><path d="M296.609,180.256v18.632a28.488,28.488,0,0,0,2.548,1.357V180.256Z" style="fill:#9dccf5"/><path d="M309.9,180.256V203.4q1.469.218,2.991.342V180.256Z" style="fill:#9dccf5"/><path d="M300.929,180.256v20.78c.818.33,1.672.63,2.548.909V180.256Z" style="fill:#9dccf5"/><path d="M305.249,180.256v22.2c.937.249,1.894.475,2.88.663V180.256Z" style="fill:#9dccf5"/><path d="M292.289,180.256V195.49a19.954,19.954,0,0,0,2.547,2.222V180.256Z" style="fill:#9dccf5"/><path d="M344.952,180.256h-2.094v13.1a11.31,11.31,0,0,0,2.094-6.393Z" style="fill:#9dccf5"/><path d="M338.537,180.256v17.456a19.965,19.965,0,0,0,2.548-2.222V180.256Z" style="fill:#9dccf5"/><path d="M334.217,180.256v19.989a28.626,28.626,0,0,0,2.548-1.357V180.256Z" style="fill:#9dccf5"/><path d="M290.516,180.256v13.1a15.785,15.785,0,0,0,1.773,2.139V180.256Z" style="fill:#4c97d9"/><path d="M294.836,180.256v17.456c.56.409,1.153.8,1.773,1.176V180.256Z" style="fill:#4c97d9"/><path d="M299.157,180.256v19.989c.577.274,1.16.544,1.772.791v-20.78Z" style="fill:#4c97d9"/><path d="M303.477,180.256v21.689c.578.183,1.171.352,1.772.512v-22.2Z" style="fill:#4c97d9"/><path d="M308.129,180.256V203.12c.58.11,1.177.195,1.773.283V180.256Z" style="fill:#4c97d9"/><path d="M312.893,180.256v23.489c.586.047,1.175.084,1.772.109v-23.6Z" style="fill:#4c97d9"/><path d="M317.656,180.256v23.63c.594-.012,1.189-.02,1.772-.054V180.256Z" style="fill:#4c97d9"/><path d="M322.89,180.256v23.237c.6-.081,1.19-.171,1.772-.274V180.256Z" style="fill:#4c97d9"/><path d="M341.085,180.256V195.49a15.859,15.859,0,0,0,1.773-2.139V180.256Z" style="fill:#4c97d9"/><path d="M336.765,180.256v18.632c.62-.375,1.213-.767,1.772-1.176V180.256Z" style="fill:#4c97d9"/><path d="M332.445,180.256v20.78c.612-.247,1.195-.517,1.772-.791V180.256Z" style="fill:#4c97d9"/><path d="M328.124,180.256v22.2c.6-.16,1.195-.329,1.773-.512V180.256Z" style="fill:#4c97d9"/><path d="M316.687,163.3c-15.61,0-28.265,7.593-28.265,16.958s12.655,16.957,28.265,16.957,28.265-7.592,28.265-16.957S332.3,163.3,316.687,163.3Z" style="fill:#c5e1fa"/><path d="M316.687,166.679c13.134,0,23.838,6.167,24.579,13.936.027-.284.072-.566.072-.854,0-8.168-11.037-14.79-24.651-14.79s-24.651,6.622-24.651,14.79c0,.288.045.57.072.854C292.849,172.846,303.553,166.679,316.687,166.679Z" style="fill:#4c97d9"/><path d="M316.687,194.55c13.134,0,23.838-6.167,24.579-13.935-.741-7.769-11.445-13.936-24.579-13.936s-23.838,6.167-24.579,13.936C292.849,188.383,303.553,194.55,316.687,194.55Z" style="fill:#4c97d9;opacity:0.5"/><path d="M332.541,188.641a24.341,24.341,0,0,0-2.818-2.788,5.569,5.569,0,0,0,.5-5.221c-1.29-3.366-5.421-3.7-8.477-3.387a21.191,21.191,0,0,0-4.209.945c-2.926-1.629-5.755-3.679-8.782-5.185a16.246,16.246,0,0,1,6.044-.956.4.4,0,0,0,.106-.786,10.82,10.82,0,0,0-8.064.883,16.954,16.954,0,0,0-4.012-1.075c-.194-.026-.247.267-.1.354.92.529,1.83,1.076,2.747,1.614-2.447,2.047-3.5,5.276.137,7.794,3.472,2.405,7.734.807,11.241-.316.311-.1.626-.2.94-.3,2.992,1.709,5.778,3.906,8.654,5.881a12.842,12.842,0,0,1-4.956,1.975,15.774,15.774,0,0,1-6.7-.122.484.484,0,0,0-.467.8c2.645,2.561,9.155,1.892,13.081-.66a9.04,9.04,0,0,0,.968-.725,30.774,30.774,0,0,0,3.61,1.975A.452.452,0,0,0,332.541,188.641Zm-23.832-8.752c-3.358-.586-4.122-3.322-2.025-5.49a5.54,5.54,0,0,1,.456-.386q4.15,2.452,8.331,4.853c-.439.148-.876.3-1.321.439A20.406,20.406,0,0,1,308.709,179.889Zm13.791-.645c2.431-.1,7.262.125,5.4,5.154l0,.007a69.042,69.042,0,0,0-7.8-4.808A13.548,13.548,0,0,1,322.5,179.244Z" style="fill:#4c97d9"/><path d="M296.8,184.365a14.563,14.563,0,0,1-1.208-2.411c-.246-.809-.012-1.709-.32-2.469a.36.36,0,0,0-.594-.157c-.708.728-.5,2.045-.27,2.953a3.777,3.777,0,0,0,1.858,2.618A.394.394,0,0,0,296.8,184.365Z" style="fill:#4c97d9"/><path d="M337.366,175.684a.2.2,0,0,0-.332.137,18.021,18.021,0,0,1,.123,2.877c-.143.836-.733,1.53-.743,2.373a.391.391,0,0,0,.492.375C338.728,180.706,338.8,176.837,337.366,175.684Z" style="fill:#4c97d9"/><path d="M332.288,174.313a.189.189,0,0,0-.132.317,24.67,24.67,0,0,0,1.83,1.655c.513.526.823,1.042,1.545,1.279a.3.3,0,0,0,.381-.29C336,175.754,333.684,174.218,332.288,174.313Z" style="fill:#4c97d9"/><path d="M319.428,170.958v23.577c1.179-.069,2.33-.188,3.462-.34V170.958Z" style="fill:#9dccf5"/><path d="M314.665,170.958v23.6c.671.028,1.339.061,2.022.061.327,0,.644-.023.969-.03v-23.63Z" style="fill:#9dccf5"/><path d="M288.422,170.958v6.7a11.307,11.307,0,0,0,2.094,6.393V170.958Z" style="fill:#9dccf5"/><path d="M324.662,170.958v22.964q1.785-.315,3.462-.763v-22.2Z" style="fill:#9dccf5"/><path d="M329.9,170.958v21.689c.876-.279,1.729-.578,2.548-.909v-20.78Z" style="fill:#9dccf5"/><path d="M296.609,170.958v18.633a28.743,28.743,0,0,0,2.548,1.356V170.958Z" style="fill:#9dccf5"/><path d="M309.9,170.958v23.148c.979.144,1.975.26,2.991.341V170.958Z" style="fill:#9dccf5"/><path d="M300.929,170.958v20.78c.818.331,1.672.63,2.548.909V170.958Z" style="fill:#9dccf5"/><path d="M305.249,170.958v22.2c.937.249,1.894.475,2.88.663V170.958Z" style="fill:#9dccf5"/><path d="M292.289,170.958v15.235a20.032,20.032,0,0,0,2.547,2.222V170.958Z" style="fill:#9dccf5"/><path d="M344.952,170.958h-2.094v13.1a11.307,11.307,0,0,0,2.094-6.393Z" style="fill:#9dccf5"/><path d="M338.537,170.958v17.457a20.043,20.043,0,0,0,2.548-2.222V170.958Z" style="fill:#9dccf5"/><path d="M334.217,170.958v19.989c.892-.424,1.748-.872,2.548-1.356V170.958Z" style="fill:#9dccf5"/><path d="M290.516,170.958v13.1a15.854,15.854,0,0,0,1.773,2.14V170.958Z" style="fill:#4c97d9"/><path d="M294.836,170.958v17.457c.56.409,1.153.8,1.773,1.176V170.958Z" style="fill:#4c97d9"/><path d="M299.157,170.958v19.989c.577.274,1.16.544,1.772.791v-20.78Z" style="fill:#4c97d9"/><path d="M303.477,170.958v21.689c.578.183,1.171.353,1.772.512v-22.2Z" style="fill:#4c97d9"/><path d="M308.129,170.958v22.864c.58.11,1.177.195,1.773.284V170.958Z" style="fill:#4c97d9"/><path d="M312.893,170.958v23.489c.586.048,1.175.084,1.772.11v-23.6Z" style="fill:#4c97d9"/><path d="M317.656,170.958v23.63c.594-.012,1.189-.019,1.772-.053V170.958Z" style="fill:#4c97d9"/><path d="M322.89,170.958V194.2c.6-.081,1.19-.171,1.772-.273V170.958Z" style="fill:#4c97d9"/><path d="M341.085,170.958v15.235a15.929,15.929,0,0,0,1.773-2.14V170.958Z" style="fill:#4c97d9"/><path d="M336.765,170.958v18.633c.62-.376,1.213-.767,1.772-1.176V170.958Z" style="fill:#4c97d9"/><path d="M332.445,170.958v20.78c.612-.247,1.195-.517,1.772-.791V170.958Z" style="fill:#4c97d9"/><path d="M328.124,170.958v22.2c.6-.159,1.195-.329,1.773-.512V170.958Z" style="fill:#4c97d9"/><path d="M316.687,154c-15.61,0-28.265,7.592-28.265,16.957s12.655,16.957,28.265,16.957,28.265-7.592,28.265-16.957S332.3,154,316.687,154Z" style="fill:#c5e1fa"/><path d="M316.687,157.381c13.134,0,23.838,6.167,24.579,13.936.027-.284.072-.565.072-.853,0-8.169-11.037-14.79-24.651-14.79s-24.651,6.621-24.651,14.79c0,.288.045.569.072.853C292.849,163.548,303.553,157.381,316.687,157.381Z" style="fill:#4c97d9"/><path d="M316.687,185.253c13.134,0,23.838-6.168,24.579-13.936-.741-7.769-11.445-13.936-24.579-13.936s-23.838,6.167-24.579,13.936C292.849,179.085,303.553,185.253,316.687,185.253Z" style="fill:#4c97d9;opacity:0.5"/><path d="M332.541,179.343a24.341,24.341,0,0,0-2.818-2.788,5.569,5.569,0,0,0,.5-5.221c-1.29-3.366-5.421-3.7-8.477-3.387a21.191,21.191,0,0,0-4.209.945c-2.926-1.629-5.755-3.679-8.782-5.185a16.246,16.246,0,0,1,6.044-.956.4.4,0,0,0,.106-.785,10.81,10.81,0,0,0-8.064.883,16.908,16.908,0,0,0-4.012-1.076c-.194-.025-.247.267-.1.354.92.53,1.83,1.077,2.747,1.614-2.447,2.048-3.5,5.276.137,7.794,3.472,2.406,7.734.808,11.241-.315.311-.1.626-.2.94-.3,2.992,1.709,5.778,3.906,8.654,5.881a12.829,12.829,0,0,1-4.956,1.976,15.774,15.774,0,0,1-6.7-.123.484.484,0,0,0-.467.8c2.645,2.561,9.155,1.892,13.081-.66a9.04,9.04,0,0,0,.968-.725A30.929,30.929,0,0,0,332,180.05.452.452,0,0,0,332.541,179.343Zm-23.832-8.752c-3.358-.586-4.122-3.322-2.025-5.49a5.54,5.54,0,0,1,.456-.386q4.15,2.452,8.331,4.853c-.439.148-.876.3-1.321.44A20.45,20.45,0,0,1,308.709,170.591Zm13.791-.644c2.431-.1,7.262.125,5.4,5.153l0,.007a69.187,69.187,0,0,0-7.8-4.808A13.546,13.546,0,0,1,322.5,169.947Z" style="fill:#4c97d9"/><path d="M296.8,175.068a14.642,14.642,0,0,1-1.208-2.411c-.246-.81-.012-1.71-.32-2.469a.361.361,0,0,0-.594-.158c-.708.729-.5,2.046-.27,2.953a3.778,3.778,0,0,0,1.858,2.619A.394.394,0,0,0,296.8,175.068Z" style="fill:#4c97d9"/><path d="M337.366,166.386a.2.2,0,0,0-.332.138,18.008,18.008,0,0,1,.123,2.876c-.143.836-.733,1.53-.743,2.374a.392.392,0,0,0,.492.375C338.728,171.408,338.8,167.539,337.366,166.386Z" style="fill:#4c97d9"/><path d="M332.288,165.016a.188.188,0,0,0-.132.316,24.67,24.67,0,0,0,1.83,1.655c.513.526.823,1.042,1.545,1.279a.3.3,0,0,0,.381-.29C336,166.456,333.684,164.921,332.288,165.016Z" style="fill:#4c97d9"/><path d="M274.109,235.212v27.052c1.352-.077,2.673-.215,3.972-.389V235.212Z" style="fill:#9dccf5"/><path d="M268.643,235.212V262.29c.769.033,1.536.07,2.319.07.376,0,.74-.026,1.113-.034V235.212Z" style="fill:#9dccf5"/><path d="M238.53,235.212v7.69a12.973,12.973,0,0,0,2.4,7.335V235.212Z" style="fill:#9dccf5"/><path d="M280.114,235.212v26.349q2.048-.361,3.973-.875V235.212Z" style="fill:#9dccf5"/><path d="M286.12,235.212V260.1c1.006-.319,1.985-.663,2.924-1.042V235.212Z" style="fill:#9dccf5"/><path d="M247.924,235.212v21.379a33.031,33.031,0,0,0,2.923,1.557V235.212Z" style="fill:#9dccf5"/><path d="M263.177,235.212v26.56c1.123.166,2.266.3,3.432.392V235.212Z" style="fill:#9dccf5"/><path d="M252.881,235.212v23.844c.939.379,1.918.723,2.924,1.042V235.212Z" style="fill:#9dccf5"/><path d="M257.839,235.212v25.474c1.074.286,2.172.545,3.3.761V235.212Z" style="fill:#9dccf5"/><path d="M242.967,235.212v17.48a22.979,22.979,0,0,0,2.923,2.55v-20.03Z" style="fill:#9dccf5"/><path d="M303.4,235.212h-2.4v15.025a12.98,12.98,0,0,0,2.4-7.335Z" style="fill:#9dccf5"/><path d="M296.035,235.212v20.03a23.059,23.059,0,0,0,2.924-2.55v-17.48Z" style="fill:#9dccf5"/><path d="M291.078,235.212v22.936c1.023-.487,2.006-1,2.924-1.557V235.212Z" style="fill:#9dccf5"/><path d="M240.933,235.212v15.025a18.1,18.1,0,0,0,2.034,2.455v-17.48Z" style="fill:#4c97d9"/><path d="M245.89,235.212v20.03c.642.469,1.323.919,2.034,1.349V235.212Z" style="fill:#4c97d9"/><path d="M250.847,235.212v22.936c.662.315,1.332.624,2.034.908V235.212Z" style="fill:#4c97d9"/><path d="M255.805,235.212V260.1c.663.211,1.344.4,2.034.588V235.212Z" style="fill:#4c97d9"/><path d="M261.143,235.212v26.235c.665.126,1.351.224,2.034.325v-26.56Z" style="fill:#4c97d9"/><path d="M266.609,235.212v26.952q1.008.082,2.034.126V235.212Z" style="fill:#4c97d9"/><path d="M272.075,235.212v27.114c.681-.014,1.364-.023,2.034-.062V235.212Z" style="fill:#4c97d9"/><path d="M278.081,235.212v26.663c.686-.093,1.365-.2,2.033-.314V235.212Z" style="fill:#4c97d9"/><path d="M298.959,235.212v17.48a18.248,18.248,0,0,0,2.034-2.455V235.212Z" style="fill:#4c97d9"/><path d="M294,235.212v21.379c.711-.43,1.391-.88,2.033-1.349v-20.03Z" style="fill:#4c97d9"/><path d="M289.044,235.212v23.844c.7-.284,1.372-.594,2.034-.908V235.212Z" style="fill:#4c97d9"/><path d="M284.087,235.212v25.474c.69-.183,1.37-.377,2.033-.588V235.212Z" style="fill:#4c97d9"/><path d="M270.962,215.753c-17.911,0-32.432,8.712-32.432,19.459s14.521,19.457,32.432,19.457,32.434-8.711,32.434-19.457S288.874,215.753,270.962,215.753Z" style="fill:#c5e1fa"/><path d="M270.962,219.632c15.072,0,27.354,7.077,28.2,15.991.031-.326.082-.648.082-.979,0-9.373-12.664-16.971-28.287-16.971s-28.286,7.6-28.286,16.971c0,.331.052.653.082.979C243.609,226.709,255.892,219.632,270.962,219.632Z" style="fill:#4c97d9"/><path d="M270.962,251.614c15.072,0,27.354-7.077,28.2-15.991-.851-8.914-13.133-15.991-28.2-15.991s-27.353,7.077-28.2,15.991C243.609,244.537,255.892,251.614,270.962,251.614Z" style="fill:#4c97d9;opacity:0.5"/><path d="M289.155,244.833a27.773,27.773,0,0,0-3.234-3.2,6.392,6.392,0,0,0,.576-5.991c-1.48-3.862-6.22-4.246-9.727-3.887a24.4,24.4,0,0,0-4.83,1.084c-3.357-1.868-6.6-4.221-10.077-5.949a18.68,18.68,0,0,1,6.936-1.1.46.46,0,0,0,.122-.9,12.408,12.408,0,0,0-9.253,1.013,19.408,19.408,0,0,0-4.6-1.234c-.224-.03-.284.306-.11.406,1.056.608,2.1,1.235,3.152,1.852-2.807,2.35-4.013,6.054.158,8.944,3.984,2.759,8.875.926,12.9-.363.357-.114.718-.227,1.079-.339,3.433,1.96,6.63,4.481,9.93,6.747a14.707,14.707,0,0,1-5.687,2.267,18.1,18.1,0,0,1-7.682-.14.555.555,0,0,0-.536.92c3.035,2.938,10.506,2.171,15.01-.757a10.472,10.472,0,0,0,1.111-.832,35.363,35.363,0,0,0,4.142,2.266A.519.519,0,0,0,289.155,244.833ZM261.809,234.79c-3.854-.672-4.731-3.812-2.324-6.3a6.25,6.25,0,0,1,.523-.443q4.762,2.814,9.559,5.568c-.5.17-1,.341-1.515.5A23.411,23.411,0,0,1,261.809,234.79Zm15.824-.739c2.79-.118,8.333.143,6.2,5.913l0,.008a79.137,79.137,0,0,0-8.955-5.517A15.457,15.457,0,0,1,277.633,234.051Z" style="fill:#4c97d9"/><path d="M248.144,239.927a16.681,16.681,0,0,1-1.387-2.767c-.282-.929-.014-1.962-.367-2.833a.413.413,0,0,0-.682-.18c-.812.835-.567,2.347-.31,3.388a4.34,4.34,0,0,0,2.132,3A.452.452,0,0,0,248.144,239.927Z" style="fill:#4c97d9"/><path d="M294.691,229.965a.226.226,0,0,0-.381.158,20.622,20.622,0,0,1,.141,3.3c-.164.959-.841,1.755-.852,2.723a.448.448,0,0,0,.565.43C296.254,235.727,296.332,231.289,294.691,229.965Z" style="fill:#4c97d9"/><path d="M288.864,228.393a.216.216,0,0,0-.15.363c.585.737,1.441,1.223,2.1,1.9.589.6.945,1.195,1.773,1.467a.348.348,0,0,0,.436-.332C293.127,230.045,290.466,228.284,288.864,228.393Z" style="fill:#4c97d9"/><path d="M284.668,220.969v27.053c1.353-.078,2.674-.215,3.973-.39V220.969Z" style="fill:#9dccf5"/><path d="M279.2,220.969v27.078c.768.033,1.536.07,2.319.07.376,0,.74-.026,1.113-.033V220.969Z" style="fill:#9dccf5"/><path d="M249.089,220.969v7.691a12.983,12.983,0,0,0,2.4,7.335V220.969Z" style="fill:#9dccf5"/><path d="M290.674,220.969v26.349q2.048-.36,3.973-.874V220.969Z" style="fill:#9dccf5"/><path d="M296.68,220.969v24.887c1-.32,1.985-.664,2.924-1.043V220.969Z" style="fill:#9dccf5"/><path d="M258.483,220.969v21.38a32.925,32.925,0,0,0,2.924,1.556V220.969Z" style="fill:#9dccf5"/><path d="M273.737,220.969V247.53q1.685.249,3.432.392V220.969Z" style="fill:#9dccf5"/><path d="M263.441,220.969v23.844c.938.379,1.918.723,2.923,1.043V220.969Z" style="fill:#9dccf5"/><path d="M268.4,220.969v25.475c1.075.285,2.173.545,3.3.76V220.969Z" style="fill:#9dccf5"/><path d="M253.526,220.969V238.45A23.069,23.069,0,0,0,256.45,241V220.969Z" style="fill:#9dccf5"/><path d="M313.955,220.969h-2.4V236a12.975,12.975,0,0,0,2.4-7.335Z" style="fill:#9dccf5"/><path d="M306.6,220.969V241a23.058,23.058,0,0,0,2.923-2.55V220.969Z" style="fill:#9dccf5"/><path d="M301.638,220.969v22.936a32.766,32.766,0,0,0,2.923-1.556v-21.38Z" style="fill:#9dccf5"/><path d="M251.492,220.969V236a18.222,18.222,0,0,0,2.034,2.455V220.969Z" style="fill:#4c97d9"/><path d="M256.45,220.969V241c.642.469,1.322.918,2.033,1.349v-21.38Z" style="fill:#4c97d9"/><path d="M261.407,220.969v22.936c.662.315,1.331.625,2.034.908V220.969Z" style="fill:#4c97d9"/><path d="M266.364,220.969v24.887c.664.211,1.344.4,2.034.588V220.969Z" style="fill:#4c97d9"/><path d="M271.7,220.969V247.2c.665.127,1.351.224,2.034.326V220.969Z" style="fill:#4c97d9"/><path d="M277.169,220.969v26.953q1.008.081,2.034.125V220.969Z" style="fill:#4c97d9"/><path d="M282.635,220.969v27.115c.681-.015,1.364-.023,2.033-.062V220.969Z" style="fill:#4c97d9"/><path d="M288.641,220.969v26.663c.685-.092,1.364-.2,2.033-.314V220.969Z" style="fill:#4c97d9"/><path d="M309.518,220.969V238.45A18.222,18.222,0,0,0,311.552,236V220.969Z" style="fill:#4c97d9"/><path d="M304.561,220.969v21.38c.711-.431,1.392-.88,2.034-1.349V220.969Z" style="fill:#4c97d9"/><path d="M299.6,220.969v23.844c.7-.283,1.372-.593,2.034-.908V220.969Z" style="fill:#4c97d9"/><path d="M294.647,220.969v25.475c.689-.184,1.37-.377,2.033-.588V220.969Z" style="fill:#4c97d9"/><path d="M281.522,201.51c-17.912,0-32.433,8.713-32.433,19.459s14.521,19.457,32.433,19.457,32.433-8.711,32.433-19.457S299.434,201.51,281.522,201.51Z" style="fill:#c5e1fa"/><path d="M281.522,205.39c15.071,0,27.354,7.077,28.2,15.991.031-.326.082-.649.082-.98,0-9.372-12.665-16.971-28.287-16.971s-28.286,7.6-28.286,16.971c0,.331.051.654.082.98C254.169,212.467,266.451,205.39,281.522,205.39Z" style="fill:#4c97d9"/><path d="M281.522,237.371c15.071,0,27.354-7.077,28.2-15.99-.851-8.914-13.134-15.991-28.2-15.991s-27.353,7.077-28.2,15.991C254.169,230.294,266.451,237.371,281.522,237.371Z" style="fill:#4c97d9;opacity:0.5"/><path d="M299.715,230.59a27.932,27.932,0,0,0-3.234-3.2,6.394,6.394,0,0,0,.576-5.991c-1.48-3.862-6.22-4.246-9.727-3.886a24.333,24.333,0,0,0-4.83,1.084c-3.357-1.869-6.6-4.222-10.078-5.95a18.683,18.683,0,0,1,6.937-1.1.461.461,0,0,0,.121-.9,12.4,12.4,0,0,0-9.252,1.014,19.421,19.421,0,0,0-4.6-1.234c-.224-.03-.284.306-.111.406,1.057.607,2.1,1.234,3.153,1.852-2.807,2.349-4.014,6.053.158,8.943,3.983,2.76,8.874.927,12.9-.362.358-.115.719-.227,1.079-.34,3.434,1.96,6.631,4.481,9.93,6.748a14.718,14.718,0,0,1-5.686,2.267,18.1,18.1,0,0,1-7.682-.141.555.555,0,0,0-.536.92c3.035,2.939,10.506,2.172,15.01-.757a10.337,10.337,0,0,0,1.111-.832,35.291,35.291,0,0,0,4.142,2.267A.519.519,0,0,0,299.715,230.59Zm-27.347-10.042c-3.853-.673-4.73-3.812-2.324-6.3a6.622,6.622,0,0,1,.523-.443q4.764,2.815,9.56,5.569c-.5.169-1,.341-1.515.5A23.457,23.457,0,0,1,272.368,220.548Zm15.825-.74c2.789-.117,8.333.144,6.2,5.914l0,.008a79.4,79.4,0,0,0-8.957-5.518A15.665,15.665,0,0,1,288.193,219.808Z" style="fill:#4c97d9"/><path d="M258.7,225.684a16.783,16.783,0,0,1-1.386-2.766c-.283-.929-.014-1.962-.367-2.834a.414.414,0,0,0-.682-.18c-.813.836-.568,2.347-.31,3.388a4.335,4.335,0,0,0,2.132,3A.452.452,0,0,0,258.7,225.684Z" style="fill:#4c97d9"/><path d="M305.251,215.723a.226.226,0,0,0-.381.157,20.744,20.744,0,0,1,.141,3.3c-.164.96-.841,1.756-.852,2.724a.449.449,0,0,0,.565.43C306.814,221.485,306.891,217.046,305.251,215.723Z" style="fill:#4c97d9"/><path d="M299.424,214.15a.216.216,0,0,0-.151.364,28.168,28.168,0,0,0,2.1,1.9c.588.6.944,1.2,1.772,1.467a.349.349,0,0,0,.437-.332C303.687,215.8,301.026,214.041,299.424,214.15Z" style="fill:#4c97d9"/><path d="M267,208.561v27.052c1.352-.077,2.673-.214,3.972-.389V208.561Z" style="fill:#9dccf5"/><path d="M261.537,208.561v27.078c.769.033,1.536.07,2.319.07.376,0,.741-.026,1.113-.033V208.561Z" style="fill:#9dccf5"/><path d="M231.424,208.561v7.691a12.972,12.972,0,0,0,2.4,7.334V208.561Z" style="fill:#9dccf5"/><path d="M273.009,208.561V234.91q2.046-.36,3.972-.874V208.561Z" style="fill:#9dccf5"/><path d="M279.015,208.561v24.887c1-.32,1.984-.664,2.923-1.043V208.561Z" style="fill:#9dccf5"/><path d="M240.818,208.561V229.94c.917.556,1.9,1.07,2.923,1.557V208.561Z" style="fill:#9dccf5"/><path d="M256.072,208.561v26.56q1.683.249,3.431.393V208.561Z" style="fill:#9dccf5"/><path d="M245.775,208.561v23.844c.939.379,1.919.723,2.924,1.043V208.561Z" style="fill:#9dccf5"/><path d="M250.732,208.561v25.475c1.075.285,2.173.544,3.306.76V208.561Z" style="fill:#9dccf5"/><path d="M235.861,208.561v17.481a23.053,23.053,0,0,0,2.923,2.549v-20.03Z" style="fill:#9dccf5"/><path d="M296.29,208.561h-2.4v15.025a12.972,12.972,0,0,0,2.4-7.334Z" style="fill:#9dccf5"/><path d="M288.929,208.561v20.03a23.063,23.063,0,0,0,2.924-2.549V208.561Z" style="fill:#9dccf5"/><path d="M283.972,208.561V231.5c1.023-.487,2.006-1,2.924-1.557V208.561Z" style="fill:#9dccf5"/><path d="M233.827,208.561v15.025a18.168,18.168,0,0,0,2.034,2.456V208.561Z" style="fill:#4c97d9"/><path d="M238.784,208.561v20.03c.642.469,1.323.919,2.034,1.349V208.561Z" style="fill:#4c97d9"/><path d="M243.741,208.561V231.5c.662.315,1.332.624,2.034.908V208.561Z" style="fill:#4c97d9"/><path d="M248.7,208.561v24.887c.663.211,1.344.4,2.033.588V208.561Z" style="fill:#4c97d9"/><path d="M254.038,208.561V234.8c.665.126,1.35.224,2.034.325v-26.56Z" style="fill:#4c97d9"/><path d="M259.5,208.561v26.953c.673.054,1.349.1,2.034.125V208.561Z" style="fill:#4c97d9"/><path d="M264.969,208.561v27.115c.681-.015,1.364-.024,2.034-.063V208.561Z" style="fill:#4c97d9"/><path d="M270.975,208.561v26.663q1.029-.138,2.034-.314V208.561Z" style="fill:#4c97d9"/><path d="M291.853,208.561v17.481a18.168,18.168,0,0,0,2.034-2.456V208.561Z" style="fill:#4c97d9"/><path d="M286.9,208.561V229.94c.711-.43,1.391-.88,2.033-1.349v-20.03Z" style="fill:#4c97d9"/><path d="M281.938,208.561v23.844c.7-.284,1.372-.593,2.034-.908V208.561Z" style="fill:#4c97d9"/><path d="M276.981,208.561v25.475c.69-.184,1.37-.377,2.034-.588V208.561Z" style="fill:#4c97d9"/><path d="M263.857,189.1c-17.912,0-32.433,8.712-32.433,19.459s14.521,19.457,32.433,19.457,32.433-8.711,32.433-19.457S281.769,189.1,263.857,189.1Z" style="fill:#c5e1fa"/><path d="M263.857,192.982c15.071,0,27.354,7.076,28.2,15.99.031-.325.082-.648.082-.979,0-9.373-12.664-16.971-28.286-16.971s-28.287,7.6-28.287,16.971c0,.331.052.654.083.979C236.5,200.058,248.786,192.982,263.857,192.982Z" style="fill:#4c97d9"/><path d="M263.857,224.963c15.071,0,27.354-7.077,28.2-15.991-.85-8.914-13.133-15.99-28.2-15.99s-27.354,7.076-28.2,15.99C236.5,217.886,248.786,224.963,263.857,224.963Z" style="fill:#4c97d9;opacity:0.5"/><path d="M282.049,218.182a27.852,27.852,0,0,0-3.234-3.2,6.392,6.392,0,0,0,.576-5.991c-1.48-3.862-6.22-4.246-9.727-3.886a24.278,24.278,0,0,0-4.83,1.084c-3.357-1.869-6.6-4.222-10.077-5.95a18.678,18.678,0,0,1,6.936-1.1.461.461,0,0,0,.122-.9,12.408,12.408,0,0,0-9.253,1.013,19.4,19.4,0,0,0-4.6-1.234c-.223-.029-.283.306-.11.406,1.056.608,2.1,1.235,3.152,1.852-2.807,2.35-4.013,6.054.159,8.944,3.983,2.76,8.873.926,12.9-.363.357-.114.719-.226,1.079-.339,3.433,1.96,6.631,4.481,9.93,6.748a14.716,14.716,0,0,1-5.686,2.266,18.108,18.108,0,0,1-7.683-.14.555.555,0,0,0-.535.92c3.035,2.939,10.5,2.171,15.01-.757a10.458,10.458,0,0,0,1.11-.832,35.363,35.363,0,0,0,4.142,2.266A.519.519,0,0,0,282.049,218.182ZM254.7,208.14c-3.853-.674-4.73-3.813-2.324-6.3a6.415,6.415,0,0,1,.523-.443q4.762,2.814,9.559,5.569c-.5.169-1,.34-1.515.5A23.491,23.491,0,0,1,254.7,208.14Zm15.824-.74c2.79-.118,8.333.143,6.2,5.913l0,.008a79.238,79.238,0,0,0-8.956-5.517A15.562,15.562,0,0,1,270.527,207.4Z" style="fill:#4c97d9"/><path d="M241.038,213.276a16.8,16.8,0,0,1-1.387-2.767c-.283-.929-.014-1.962-.367-2.833a.413.413,0,0,0-.682-.18c-.812.835-.568,2.347-.309,3.388a4.332,4.332,0,0,0,2.132,3.005A.452.452,0,0,0,241.038,213.276Z" style="fill:#4c97d9"/><path d="M287.586,203.314a.226.226,0,0,0-.381.158,20.744,20.744,0,0,1,.14,3.3c-.164.959-.84,1.756-.852,2.723a.45.45,0,0,0,.565.431C289.148,209.076,289.226,204.638,287.586,203.314Z" style="fill:#4c97d9"/><path d="M281.758,201.742a.215.215,0,0,0-.15.363,28.144,28.144,0,0,0,2.1,1.9c.589.6.945,1.2,1.773,1.467a.348.348,0,0,0,.436-.333C286.021,203.394,283.361,201.633,281.758,201.742Z" style="fill:#4c97d9"/><path d="M821.726,298.255h0v-2.762l38.116-20.03a6,6,0,0,1,5.376-.222l17.39,7.909v2.909l-.017.007a2.16,2.16,0,0,1-1.294,1.784L844.466,309.1a6,6,0,0,1-5.375.222l-16.465-9.506A1.513,1.513,0,0,1,821.726,298.255Z" style="fill:#08233e"/><path d="M822.626,296.669l16.465,9.506a6,6,0,0,0,5.375-.222l36.827-21.248c1.585-.915,1.758-2.311.386-3.1L865.215,272.1a6,6,0,0,0-5.376.223l-36.827,21.248C821.427,294.481,821.254,295.877,822.626,296.669Z" style="fill:#144b82"/><path d="M853.863,194.347s-2.6,26.421.336,46.681c2.248,15.513,8.352,31.318,8.352,31.318l-21,33.3-18.172-10.681V208.6Z" style="fill:#001a33"/><path d="M872.035,205.027s-2.6,26.421.336,46.681c2.247,15.513,8.352,31.319,8.352,31.319L841.55,305.643V219.279Z" style="fill:#0c3157"/><circle cx="851.874" cy="177.742" r="37.966" style="fill:#041322"/><path d="M813.573,162.528a68.8,68.8,0,0,1,2.216-7.1c.782-2.111,1.393-3.48,1.393-3.48l15.427-8.557a13.283,13.283,0,0,1,5.716-.974,23.992,23.992,0,0,1,10.994,3.376,37.137,37.137,0,0,1,6.369,4.765c11.329,10.337,19.728,28.817,19.728,45.1,0,10.138-3.339,16.387-8.527,19.751l-16.023,9.183s-7.555-1.184-12.376-3.968c-14.414-8.321-26.1-30.646-26.1-49.864A35.109,35.109,0,0,1,813.573,162.528Z" style="fill:#4c95db"/><path d="M813.573,162.528a68.8,68.8,0,0,1,2.216-7.1l22.536-13.011a23.992,23.992,0,0,1,10.994,3.376,37.137,37.137,0,0,1,6.369,4.765L824.266,168.7Z" style="fill:#fff;opacity:0.4"/><ellipse cx="834.069" cy="188.228" rx="22.666" ry="40.065" transform="translate(-7.106 341.609) rotate(-23.051)" style="fill:#9dcbf7"/><path d="M821.066,155.674c-4.406,3.04-7.157,9.335-7.157,18.08,0,16.927,10.291,36.591,22.987,43.921,4.226,2.44,8.184,3.2,11.586,2.507-4.122,2.845-9.692,2.841-15.829-.7-12.7-7.33-22.987-26.994-22.987-43.921C809.666,164.268,814.249,157.056,821.066,155.674Z" style="fill:#fff"/><path d="M836.9,217.675c-12.7-7.33-22.987-26.994-22.987-43.921,0-8.745,2.751-15.04,7.157-18.08,3.4-.69,7.36.067,11.587,2.508,12.7,7.329,22.987,26.993,22.987,43.92,0,8.746-2.752,15.04-7.158,18.08C845.08,220.872,841.122,220.115,836.9,217.675Z" style="fill:#c5d2ef"/><path d="M659.713,193.908c16.823-1.211,26.713-.243,36.126.087a102.391,102.391,0,0,0,18.6-.813c8.541-1.181,27.184-5.8,39.354-10.579,39.13-15.356,64.008-27.648,64.008-27.648,4.169-2.047,9.451-1.676,15.209,1.648A34.563,34.563,0,0,1,838.9,161c10.336,9.4,18.052,26.058,18.429,41,.01.38.036.764.036,1.142,0,9.123-2.831,15.72-7.374,19,0,0-12.618,9.491-48.162,33.073-10.923,7.248-23.207,17.644-31.441,27.354a165.223,165.223,0,0,0-22.4,34.377c-1.107,2.31-1.667,3.667-1.667,3.667l-51.21-53.86S657.734,194.051,659.713,193.908Z" style="fill:#0c3157"/><path d="M805.883,231.372c16.028-9.1,38.534-21.983,51.444-29.379.01.38.036.764.036,1.142,0,9.123-2.831,15.72-7.374,19,0,0-12.618,9.491-48.162,33.073-10.923,7.248-23.207,17.644-31.441,27.354a165.223,165.223,0,0,0-22.4,34.377L737.341,284.25S770.355,251.551,805.883,231.372Z" style="fill:#001a33"/><path d="M695.839,220.426V194a102.391,102.391,0,0,0,18.6-.813c8.541-1.181,27.184-5.8,39.354-10.579,39.13-15.356,64.008-27.648,64.008-27.648,4.169-2.047,9.451-1.676,15.209,1.648A34.563,34.563,0,0,1,838.9,161c-9.8,5.453-26.973,14.455-51.093,25C754.018,200.763,695.839,220.426,695.839,220.426Z" style="fill:#08233e;opacity:0.30000000000000004"/><path d="M661.634,185.147l12.2-7.169a27.577,27.577,0,0,1,14.19-1.94c6.049.662,12.592,2.99,19.48,6.918.12.069.238.129.358.2,31.268,18.053,56.616,66.484,56.616,108.175,0,21.992-7.058,37.706-18.313,45.005l0,0-.035.02c-.971.627-11.421,6.379-11.421,6.379s-16.39-2.568-26.849-8.607c-31.268-18.052-56.615-66.484-56.615-108.174C651.243,208.317,661.634,185.147,661.634,185.147Z" style="fill:#4c95db"/><path d="M658.8,192.91l29.224-16.872c6.049.662,12.592,2.99,19.48,6.918l-32.972,19.037Z" style="fill:#fff;opacity:0.4"/><ellipse cx="698.269" cy="263.848" rx="49.172" ry="86.915" transform="translate(-47.558 294.476) rotate(-23.051)" style="fill:#9dcbf7"/><path d="M670.06,193.225c-9.559,6.6-15.528,20.252-15.528,39.223,0,36.721,22.327,79.38,49.868,95.281,9.169,5.294,17.754,6.935,25.136,5.44-8.943,6.17-21.027,6.162-34.34-1.524-27.541-15.9-49.867-58.559-49.867-95.281C645.329,211.869,655.27,196.223,670.06,193.225Z" style="fill:#08233e"/><path d="M670.06,193.225a30.9,30.9,0,0,1,15.453,1.122c-6.243,6.606-9.991,17.472-9.991,31.673,0,32.751,19.913,70.8,44.476,84.979,7.887,4.554,15.289,6.078,21.712,4.986-2.688,7.7-6.876,13.528-12.174,17.184-7.382,1.5-15.967-.146-25.136-5.44-27.541-15.9-49.868-58.56-49.868-95.281C654.532,213.476,660.5,199.821,670.06,193.225Z" style="fill:#0c3157"/><path d="M720,311c-24.563-14.181-44.476-52.228-44.476-84.979,0-14.2,3.748-25.067,9.991-31.673a48.4,48.4,0,0,1,9.683,4.318c27.541,15.9,49.868,58.56,49.868,95.281a67.055,67.055,0,0,1-3.354,22.039C735.287,317.077,727.885,315.553,720,311Z" style="fill:#c5d2ef"/><path d="M720,311c-24.563-14.181-44.476-52.228-44.476-84.979,0-14.2,3.748-25.067,9.991-31.673a48.4,48.4,0,0,1,9.683,4.318c27.541,15.9,49.868,58.56,49.868,95.281a67.055,67.055,0,0,1-3.354,22.039C735.287,317.077,727.885,315.553,720,311Z" style="fill:#001a33"/><path d="M704.162,287.035l38.436-15.2s-1.8-12.556-9.9-28.851c-7.809-15.71-13.719-22.562-13.719-22.562l-34.42,23.493Z" style="fill:#08233e"/><path d="M684.555,243.919c.006,0,.015,0,.02,0,2.681-1.444,6.132-1.258,9.9.918,8.527,4.923,15.439,18.131,15.439,29.5,0,6.477-2.248,10.95-5.754,12.7a2.443,2.443,0,0,1-.415.261,23.721,23.721,0,0,1-19.192-43.377Z" style="fill:#08233e"/><path d="M670.588,265.549c0,7.4,4.5,16,10.049,19.2s10.048-.2,10.048-7.6-4.5-16-10.048-19.2S670.588,258.15,670.588,265.549Z" style="fill:#4c95db"/><path d="M670.854,266.854c0,6.358,3.866,13.745,8.635,16.5s8.635-.169,8.635-6.527-3.866-13.746-8.635-16.5S670.854,260.5,670.854,266.854Z" style="fill:#9dcbf7"/><path d="M671.35,267.49c0,5.547,3.372,11.99,7.532,14.392s7.532-.147,7.532-5.694-3.372-11.99-7.532-14.392S671.35,261.943,671.35,267.49Z" style="fill:#fff"/><path d="M829.074,273.2l6.15,3.6c.818.473,1.489-.034,1.489-1.125V254.3a3.579,3.579,0,0,0-1.489-2.844l-6.15-3.6c-.818-.473-1.488.033-1.488,1.125v21.372A3.579,3.579,0,0,0,829.074,273.2Z" style="fill:#08233e"/><path d="M826.54,260.983v-9.748l2.534-1.463,3.44,4.843a52.161,52.161,0,0,1,1.1,12.475,26.573,26.573,0,0,1-3.632,10.833l-5.974-3.379A46.948,46.948,0,0,0,826.54,260.983Z" style="fill:#08233e"/><path d="M835.048,253.152V275l-5.069,2.926a46.936,46.936,0,0,0,2.535-13.559v-9.749Z" style="fill:#144b82"/><polygon points="829.074 249.772 835.048 253.152 832.514 254.615 826.54 251.235 829.074 249.772" style="fill:#4c95db"/></svg>